<!-- Generated by IcoMoon.io -->
<svg version="1.1" xmlns="http://www.w3.org/2000/svg" width="32" height="32" viewBox="0 0 32 32">
<title>facebook</title>
<path fill="#fff" d="M24.175 0.236v5.097h-2.918c-0.102-0.014-0.22-0.021-0.34-0.021-0.708 0-1.352 0.272-1.834 0.716l0.002-0.002c-0.358 0.514-0.572 1.152-0.572 1.84 0 0.082 0.003 0.163 0.009 0.243l-0.001-0.011v3.634h5.478l-0.762 5.691h-4.716v14.575h-5.745v-14.59h-4.777v-5.691h4.777v-4.213q0-3.573 1.943-5.547c1.237-1.217 2.935-1.969 4.809-1.969 0.134 0 0.266 0.004 0.398 0.011l-0.018-0.001c0.14-0.002 0.305-0.004 0.471-0.004 1.338 0 2.656 0.087 3.948 0.256l-0.152-0.016z"></path>
</svg>
