<!-- Generated by IcoMoon.io -->
<svg version="1.1" xmlns="http://www.w3.org/2000/svg" width="32" height="32" viewBox="0 0 32 32">
<title>globe</title>
<path fill="#d4953f" d="M16 0c-8.837 0-16 7.163-16 16s7.163 16 16 16c8.837 0 16-7.163 16-16v0c0-8.837-7.163-16-16-16v0zM16 4c1.364 0.052 2.649 0.327 3.841 0.788l-0.081-0.028c-0.84 0.8-1.8 1.5-1.64 2.24s2.76 0.5 2.76 2c0 1.080-1.68 1.4-0.5 2.64 1.4 1.4-2.56 3.92-2.64 5.76-0.12 3.32 3.36 3.88 6.12 3.88 1.68 0 2.12 0.8 2 1.76-2.212 3.044-5.76 5.001-9.765 5.001-0.040 0-0.081-0-0.121-0.001l0.006 0c-1.535-0.023-2.989-0.345-4.315-0.908l0.075 0.028c0.88-1.76-1.12-5.24-3-6.36-0.92-0.92-2.88-0.56-4-1-0.394-0.986-0.665-2.128-0.757-3.32l-0.003-0.040c0.124-0.217 0.354-0.36 0.618-0.36 0.008 0 0.016 0 0.023 0l-0.001-0c0.76 0 1.8 1.5 2.36 1.36 0.7-0.16-2.98-5.24-1.26-6.24 0.8-0.5 2.4 1.56 1.88-0.64-0.5-2.040 1.44-1.12 2.64-1.64 1.040-0.44 1.8-1.64 0.5-2.36-0.335-0.22-0.624-0.471-0.876-0.755l-0.004-0.005c1.747-1.091 3.866-1.744 6.136-1.76l0.004-0v-0.040zM25.24 8.36c0.674 0.834 1.263 1.781 1.726 2.797l0.034 0.083v0.12c-0.265 0.326-0.554 0.615-0.869 0.871l-0.011 0.009c-1.12 1.12-1.28-0.84-1.76-1.24-0.5-0.5-2.4 0.080-2.64-0.5-0.28-0.74 2-1.7 3.52-2.14z"></path>
</svg>
