<!-- Generated by IcoMoon.io -->
<svg version="1.1" xmlns="http://www.w3.org/2000/svg" width="32" height="32" viewBox="0 0 32 32">
<title>instagram</title>
<path fill="#fff" d="M28.374 27.034v-13.498h-2.811c0.272 0.814 0.431 1.751 0.434 2.725v0.002c0 0.019 0 0.042 0 0.065 0 1.766-0.496 3.416-1.356 4.819l0.023-0.040c-0.893 1.468-2.119 2.652-3.577 3.471l-0.049 0.025c-1.416 0.815-3.113 1.295-4.922 1.295-0.026 0-0.052-0-0.078-0l0.004 0c-0.042 0.001-0.091 0.001-0.141 0.001-2.676 0-5.1-1.080-6.86-2.828l0.001 0.001c-1.798-1.674-2.919-4.054-2.919-6.696 0-0.056 0-0.112 0.002-0.168l-0 0.008c-0.001-0.044-0.001-0.096-0.001-0.148 0-0.914 0.137-1.797 0.391-2.628l-0.017 0.064h-2.933v13.528c-0 0.009-0 0.020-0 0.031 0 0.678 0.543 1.229 1.218 1.241l0.001 0h22.319c0.006 0 0.012 0 0.019 0 0.34 0 0.648-0.137 0.873-0.358l-0 0c0.235-0.221 0.381-0.535 0.381-0.882 0-0.011-0-0.022-0-0.034l0 0.002zM22.456 15.935c0-0.022 0-0.048 0-0.074 0-1.709-0.726-3.248-1.886-4.325l-0.004-0.003c-1.14-1.131-2.709-1.829-4.442-1.829-0.045 0-0.090 0-0.135 0.001l0.007-0c-0.023-0-0.050-0-0.078-0-1.726 0-3.289 0.696-4.424 1.821l0-0c-1.159 1.081-1.882 2.617-1.882 4.322 0 0.028 0 0.057 0.001 0.085l-0-0.004c-0 0.026-0.001 0.057-0.001 0.088 0 1.705 0.723 3.241 1.879 4.319l0.004 0.003c1.136 1.13 2.702 1.829 4.431 1.829 0.025 0 0.049-0 0.074-0l-0.004 0c0.038 0.001 0.083 0.001 0.128 0.001 1.733 0 3.302-0.699 4.442-1.83l-0 0c1.164-1.081 1.89-2.62 1.89-4.329 0-0.026-0-0.052-0-0.078l0 0.004zM28.367 8.44v-3.443c0-0.002 0-0.004 0-0.006 0-0.387-0.157-0.738-0.411-0.992l-0-0c-0.25-0.263-0.603-0.427-0.994-0.427-0.001 0-0.003 0-0.004 0h-3.641c-0.001 0-0.003 0-0.004 0-0.391 0-0.744 0.164-0.993 0.426l-0.001 0.001c-0.254 0.254-0.411 0.604-0.411 0.992 0 0.002 0 0.004 0 0.006v-0 3.443c-0 0.011-0 0.025-0 0.038 0 0.779 0.625 1.412 1.401 1.424h3.657c0.78-0.009 1.409-0.643 1.409-1.424 0-0.005-0-0.011-0-0.016v0.001zM31.992 4.106v23.789c-0.013 2.258-1.84 4.085-4.097 4.098h-23.79c-0.014 0-0.030 0-0.047 0-1.118 0-2.128-0.464-2.847-1.21l-0.001-0.001c-0.747-0.72-1.211-1.73-1.211-2.848 0-0.014 0-0.027 0-0.041l-0 0.002v-23.789c-0-0.014-0-0.030-0-0.047 0-1.118 0.464-2.128 1.21-2.847l0.001-0.001c0.72-0.747 1.73-1.211 2.848-1.211 0.016 0 0.033 0 0.049 0l-0.002-0h23.789c0.014-0 0.030-0 0.047-0 1.118 0 2.128 0.464 2.847 1.21l0.001 0.001c0.743 0.72 1.204 1.726 1.204 2.841 0 0.019-0 0.038-0 0.057l0-0.003z"></path>
</svg>
