<!-- Generated by IcoMoon.io -->
<svg version="1.1" xmlns="http://www.w3.org/2000/svg" width="32" height="32" viewBox="0 0 32 32">
<title>rain</title>
<path fill="#d4953f" d="M17.98 0c-0.009-0-0.021-0-0.032-0-4.856 0-8.92 3.39-9.955 7.932l-0.013 0.069c-4.418 0-8 3.582-8 8v0c-0 0.011-0 0.025-0 0.038 0 2.066 0.814 3.942 2.138 5.325l-0.003-0.003c1.019-0.847 2.341-1.361 3.783-1.361 0.029 0 0.058 0 0.086 0.001l-0.004-0c0.812 0 1.58 0.185 2.267 0.514l-0.032-0.014c0.686-2.594 3.003-4.479 5.763-4.5h0.002c2.755 0.037 5.061 1.915 5.745 4.458l0.010 0.042c0.66-0.298 1.429-0.48 2.238-0.5l0.007-0c2.483 0.020 4.603 1.552 5.486 3.72l0.014 0.040c2.586-0.696 4.464-3.004 4.5-5.756l0-0.004c0-2.6-1.68-5.16-4-6v-2c0-5.523-4.477-10-10-10v0 0zM13.345 20c-0.801 0.273-1.368 1.019-1.368 1.897 0 0.036 0.001 0.072 0.003 0.108l-0-0.005v8c0 1.105 0.895 2 2 2s2-0.895 2-2v0 0-8c0-0.009 0-0.021 0-0.032 0-1.105-0.895-2-2-2-0.126 0-0.248 0.012-0.368 0.034l0.012-0.002h-0.28zM5.345 24c-0.801 0.273-1.368 1.019-1.368 1.897 0 0.036 0.001 0.072 0.003 0.108l-0-0.005v4c0 1.105 0.895 2 2 2s2-0.895 2-2v0 0-4c0-0.009 0-0.021 0-0.032 0-1.105-0.895-2-2-2-0.126 0-0.248 0.012-0.368 0.034l0.012-0.002h-0.27zM21.345 24c-0.801 0.273-1.368 1.019-1.368 1.897 0 0.036 0.001 0.072 0.003 0.108l-0-0.005v4c0 1.105 0.895 2 2 2s2-0.895 2-2v0-4c0-0.009 0-0.021 0-0.032 0-1.105-0.895-2-2-2-0.126 0-0.248 0.012-0.368 0.034l0.012-0.002h-0.29z"></path>
</svg>
