<!-- Generated by IcoMoon.io -->
<svg version="1.1" xmlns="http://www.w3.org/2000/svg" width="32" height="32" viewBox="0 0 32 32">
<title>twitter</title>
<path fill="#fff" d="M31.865 6.154c-0.904 1.328-1.989 2.452-3.236 3.37l-0.038 0.027v0.849c-0.004 1.873-0.285 3.679-0.804 5.381l0.034-0.131c-0.571 1.904-1.359 3.564-2.358 5.074l0.044-0.071c-1.066 1.628-2.299 3.029-3.703 4.236l-0.026 0.022c-1.48 1.244-3.212 2.247-5.102 2.918l-0.116 0.036c-1.907 0.702-4.11 1.108-6.407 1.108-0.045 0-0.090-0-0.135-0l0.007 0c-0.034 0-0.073 0-0.113 0-3.687 0-7.117-1.1-9.979-2.99l0.068 0.042c0.449 0.051 0.969 0.080 1.495 0.080 0.028 0 0.056-0 0.084-0l-0.004 0c0.040 0 0.087 0.001 0.133 0.001 3.026 0 5.806-1.051 7.996-2.808l-0.025 0.019c-2.845-0.054-5.242-1.916-6.091-4.483l-0.013-0.046c0.368 0.060 0.794 0.096 1.228 0.098h0.002c0.61-0 1.202-0.081 1.764-0.232l-0.047 0.011c-1.522-0.308-2.818-1.118-3.738-2.247l-0.009-0.012c-0.923-1.090-1.484-2.511-1.484-4.064 0-0.032 0-0.063 0.001-0.095l-0 0.005v-0.080c0.851 0.486 1.863 0.787 2.943 0.824l0.011 0c-0.886-0.595-1.603-1.377-2.106-2.292l-0.017-0.034c-0.496-0.885-0.788-1.942-0.788-3.067 0-0.019 0-0.037 0-0.056l-0 0.003c-0-0.006-0-0.013-0-0.020 0-1.203 0.332-2.328 0.908-3.289l-0.016 0.029c1.624 1.984 3.612 3.603 5.872 4.77l0.103 0.049c2.181 1.143 4.747 1.863 7.468 1.986l0.039 0.001c-0.1-0.449-0.159-0.965-0.16-1.494v-0.001c-0.001-0.044-0.002-0.096-0.002-0.148 0-1.74 0.706-3.316 1.848-4.455l0-0c1.183-1.176 2.814-1.903 4.615-1.903s3.432 0.727 4.616 1.904l-0-0 0.129 0.135c1.586-0.286 3.001-0.825 4.275-1.577l-0.060 0.033c-0.491 1.544-1.512 2.8-2.844 3.584l-0.030 0.016c1.396-0.162 2.669-0.52 3.849-1.048l-0.082 0.033z"></path>
</svg>
