<!-- Generated by IcoMoon.io -->
<svg version="1.1" xmlns="http://www.w3.org/2000/svg" width="30" height="32" viewBox="0 0 30 32">
<title>wifi</title>
<path fill="#d4953e" d="M14.94 0c-0.007 0-0.015 0-0.024 0-5.538 0-10.697 1.626-15.025 4.426l0.108-0.066 2.11 3.24c3.575-2.284 7.935-3.641 12.611-3.641 0.077 0 0.154 0 0.231 0.001l-0.012-0c0.101-0.002 0.219-0.002 0.338-0.002 4.677 0 9.037 1.357 12.707 3.699l-0.095-0.057 2.11-3.24c-4.226-2.735-9.392-4.36-14.937-4.36-0.043 0-0.086 0-0.13 0l0.007-0zM14.94 12c-0.014-0-0.031-0-0.047-0-3.142 0-6.067 0.933-8.512 2.536l0.059-0.036 2.11 3.36c1.774-1.166 3.948-1.86 6.284-1.86 0.023 0 0.046 0 0.069 0l-0.004-0c0.008-0 0.017-0 0.027-0 2.402 0 4.64 0.701 6.522 1.909l-0.048-0.029 2.1-3.38c-2.437-1.561-5.409-2.492-8.598-2.5h0.033zM14.94 24c-2.209 0-4 1.791-4 4s1.791 4 4 4c2.209 0 4-1.791 4-4v0c0-2.209-1.791-4-4-4v0z"></path>
</svg>
