<!-- Generated by IcoMoon.io -->
<svg version="1.1" xmlns="http://www.w3.org/2000/svg" width="32" height="32" viewBox="0 0 32 32">
<title>youtube</title>
<path fill="#fff" d="M19.528 22.21v3.81q0 1.196-0.693 1.196c-0.324-0.017-0.609-0.167-0.806-0.395l-0.001-0.001v-5.417c0.196-0.235 0.482-0.39 0.804-0.411l0.003-0q0.693 0 0.693 1.219zM25.562 22.21v0.823h-1.6v-0.808q0-1.211 0.808-1.211t0.762 1.211v0zM8.32 18.286h1.905v-1.63h-5.562v1.676h1.874v10.164h1.783v-10.21zM13.463 28.495h1.592v-8.823h-1.592v6.75c-0.196 0.39-0.557 0.674-0.989 0.76l-0.009 0.002c-0.002 0-0.005 0-0.008 0-0.199 0-0.361-0.159-0.366-0.358v-0s0 0 0 0c-0.006-0.093-0.010-0.202-0.010-0.312s0.004-0.219 0.011-0.327l-0.001 0.015v-6.53h-1.63v6.994c-0.002 0.051-0.003 0.11-0.003 0.17 0 0.403 0.054 0.793 0.155 1.164l-0.007-0.031c0.127 0.392 0.489 0.671 0.915 0.671 0.043 0 0.085-0.003 0.126-0.008l-0.005 0.001c0.756-0.095 1.402-0.5 1.816-1.081l0.005-0.008v0.952zM21.12 25.851v-3.505c0.004-0.089 0.007-0.192 0.007-0.297 0-0.525-0.064-1.034-0.184-1.522l0.009 0.044c-0.117-0.574-0.618-0.999-1.218-0.999-0.019 0-0.038 0-0.057 0.001l0.003-0c-0.698 0.055-1.296 0.436-1.648 0.989l-0.005 0.009v-3.886h-1.585v11.81h1.592v-0.861c0.366 0.556 0.964 0.934 1.652 0.997l0.009 0.001c0.014 0.001 0.029 0.001 0.046 0.001 0.598 0 1.097-0.426 1.21-0.991l0.001-0.008c0.111-0.451 0.174-0.968 0.174-1.501 0-0.102-0.002-0.203-0.007-0.304l0.001 0.014zM27.154 25.669v-0.229h-1.63c0.011 0.163 0.017 0.353 0.017 0.545s-0.006 0.382-0.018 0.571l0.001-0.026c-0.020 0.362-0.319 0.648-0.685 0.648-0.011 0-0.022-0-0.033-0.001l0.002 0q-0.823 0-0.823-1.227v-1.57h3.192v-1.836c0.005-0.072 0.008-0.155 0.008-0.239 0-0.677-0.19-1.31-0.52-1.848l0.009 0.015c-0.451-0.561-1.136-0.916-1.905-0.916s-1.454 0.356-1.901 0.911l-0.004 0.005c-0.322 0.514-0.513 1.139-0.513 1.808 0 0.093 0.004 0.185 0.011 0.276l-0.001-0.012v3.086c-0.008 0.086-0.012 0.186-0.012 0.287 0 0.662 0.192 1.279 0.523 1.799l-0.008-0.014c0.421 0.558 1.084 0.915 1.829 0.915 0.024 0 0.048-0 0.071-0.001l-0.003 0c0.029 0.001 0.062 0.002 0.096 0.002 1.116 0 2.039-0.828 2.188-1.903l0.001-0.012c0.044-0.311 0.069-0.67 0.069-1.036 0-0 0-0 0-0.001v0zM16.297 9.371v-3.749q0-1.227-0.762-1.227t-0.762 1.227v3.749q0 1.25 0.762 1.25t0.762-1.25zM29.135 22.781c0.007 0.25 0.011 0.545 0.011 0.841 0 1.911-0.173 3.781-0.505 5.596l0.029-0.189c-0.164 0.706-0.53 1.31-1.033 1.765l-0.003 0.003c-0.483 0.451-1.111 0.751-1.808 0.822l-0.013 0.001c-2.56 0.244-5.536 0.383-8.544 0.383-0.479 0-0.956-0.004-1.433-0.011l0.072 0.001c-0.405 0.006-0.883 0.010-1.361 0.010-3.008 0-5.983-0.139-8.92-0.411l0.377 0.028c-0.706-0.077-1.331-0.376-1.815-0.825l0.002 0.002c-0.516-0.452-0.887-1.058-1.040-1.746l-0.004-0.022c-0.312-1.633-0.491-3.512-0.491-5.432 0-0.287 0.004-0.573 0.012-0.858l-0.001 0.042c-0.007-0.25-0.011-0.545-0.011-0.841 0-1.911 0.173-3.781 0.505-5.596l-0.029 0.189c0.169-0.711 0.543-1.318 1.056-1.772l0.004-0.003c0.489-0.452 1.121-0.756 1.821-0.837l0.015-0.001q3.269-0.358 9.905-0.358t9.905 0.358c1.417 0.183 2.546 1.227 2.853 2.583l0.004 0.022c0.292 1.579 0.459 3.395 0.459 5.251 0 0.353-0.006 0.705-0.018 1.055l0.001-0.051zM11.314 0h1.821l-2.156 7.124v4.838h-1.783v-4.838c-0.328-1.508-0.703-2.782-1.157-4.019l0.067 0.21q-0.663-1.79-1.166-3.314h1.897l1.272 4.693zM17.905 5.943v3.124c0.007 0.083 0.011 0.18 0.011 0.278 0 0.675-0.191 1.305-0.523 1.84l0.009-0.015c-0.403 0.554-1.050 0.91-1.779 0.91-0.042 0-0.083-0.001-0.124-0.003l0.006 0c-0.026 0.001-0.057 0.002-0.088 0.002-0.731 0-1.379-0.355-1.782-0.902l-0.004-0.006c-0.322-0.525-0.512-1.161-0.512-1.842 0-0.092 0.003-0.183 0.010-0.273l-0.001 0.012v-3.124c-0.006-0.079-0.010-0.171-0.010-0.264 0-0.674 0.191-1.304 0.521-1.838l-0.009 0.015c0.406-0.553 1.055-0.908 1.786-0.908 0.031 0 0.062 0.001 0.093 0.002l-0.004-0c0.035-0.002 0.077-0.003 0.118-0.003 0.729 0 1.376 0.356 1.775 0.904l0.004 0.006c0.322 0.519 0.513 1.149 0.513 1.823 0 0.093-0.004 0.185-0.011 0.276l0.001-0.012zM23.901 3.048v8.914h-1.623v-0.968c-0.416 0.604-1.070 1.017-1.824 1.104l-0.012 0.001c-0.021 0.002-0.045 0.002-0.070 0.002-0.435 0-0.805-0.278-0.942-0.666l-0.002-0.007c-0.094-0.347-0.148-0.745-0.148-1.156 0-0.065 0.001-0.13 0.004-0.194l-0 0.009v-7.040h1.623v6.552c-0.007 0.093-0.010 0.202-0.010 0.312s0.004 0.219 0.011 0.327l-0.001-0.015c-0 0.007-0.001 0.015-0.001 0.023 0 0.201 0.159 0.365 0.358 0.373l0.001 0c0.44-0.089 0.801-0.372 0.994-0.754l0.004-0.008v-6.811h1.646z"></path>
</svg>
