<svg aria-hidden="true" style="position: absolute; width: 0; height: 0; overflow: hidden;" version="1.1" xmlns="http://www.w3.org/2000/svg" xmlns:xlink="http://www.w3.org/1999/xlink">
<defs>
<symbol id="icon-clear-view-escapes" viewBox="0 0 32 32">
<title>clear-view-escapes</title>
<path fill="#fff" style="fill: var(--color1, #fff)" d="M4.331 15.398v1.070h-3.058v1.242h2.806v0.989h-2.806v1.42h3.121v1.070h-4.394v-5.792h4.331z"></path>
<path fill="#fff" style="fill: var(--color1, #fff)" d="M6.103 20.146c0.050 0.090 0.116 0.166 0.196 0.224l0.002 0.001c0.080 0.056 0.173 0.099 0.274 0.125l0.006 0.001c0.097 0.026 0.209 0.041 0.324 0.041 0.002 0 0.003 0 0.005 0h-0c0.091-0.001 0.178-0.012 0.263-0.031l-0.008 0.002c0.092-0.019 0.173-0.051 0.248-0.092l-0.004 0.002c0.077-0.042 0.141-0.099 0.19-0.167l0.001-0.002c0.045-0.067 0.072-0.149 0.072-0.238 0-0.006-0-0.012-0-0.018l0 0.001c-0.015-0.194-0.157-0.351-0.342-0.389l-0.003-0c-0.266-0.099-0.591-0.192-0.925-0.261l-0.044-0.008q-0.252-0.056-0.491-0.133c-0.162-0.051-0.303-0.12-0.432-0.207l0.006 0.004c-0.123-0.082-0.223-0.188-0.297-0.311l-0.002-0.004c-0.071-0.126-0.113-0.277-0.113-0.437 0-0.010 0-0.021 0-0.031l-0 0.001c-0.001-0.019-0.002-0.040-0.002-0.062 0-0.225 0.059-0.437 0.163-0.62l-0.003 0.006c0.103-0.171 0.244-0.309 0.411-0.407l0.005-0.003c0.168-0.098 0.364-0.172 0.572-0.21l0.011-0.002c0.198-0.039 0.425-0.061 0.658-0.061 0.006 0 0.013 0 0.019 0h-0.001c0.001 0 0.002 0 0.003 0 0.232 0 0.459 0.024 0.678 0.069l-0.022-0.004c0.216 0.044 0.408 0.123 0.58 0.23l-0.007-0.004c0.166 0.11 0.302 0.252 0.402 0.418l0.003 0.006c0.113 0.181 0.186 0.399 0.2 0.631l0 0.004h-1.102c0-0.004 0-0.009 0-0.013 0-0.186-0.101-0.348-0.25-0.436l-0.002-0.001c-0.148-0.074-0.322-0.118-0.506-0.118-0.010 0-0.020 0-0.029 0l0.001-0c-0 0-0.001 0-0.001 0-0.074 0-0.148 0.004-0.22 0.012l0.009-0.001c-0.076 0.007-0.147 0.026-0.212 0.054l0.005-0.002c-0.063 0.028-0.115 0.067-0.157 0.117l-0 0.001c-0.041 0.052-0.066 0.119-0.066 0.191 0 0.006 0 0.011 0 0.017l-0-0.001c-0 0.003-0 0.007-0 0.011 0 0.097 0.044 0.184 0.112 0.241l0 0c0.083 0.068 0.182 0.122 0.289 0.156l0.006 0.002c0.11 0.038 0.25 0.076 0.393 0.106l0.024 0.004 0.491 0.11c0.2 0.045 0.365 0.092 0.525 0.148l-0.034-0.010c0.163 0.058 0.304 0.134 0.43 0.228l-0.004-0.003c0.123 0.089 0.223 0.2 0.297 0.328l0.003 0.005c0.071 0.132 0.113 0.29 0.113 0.457 0 0.012-0 0.024-0.001 0.036l0-0.002c0.001 0.018 0.001 0.040 0.001 0.061 0 0.454-0.238 0.853-0.596 1.078l-0.005 0.003c-0.177 0.11-0.385 0.191-0.607 0.23l-0.011 0.002c-0.211 0.044-0.453 0.070-0.701 0.070h-0c-0.003 0-0.007 0-0.011 0-0.249 0-0.492-0.026-0.726-0.076l0.023 0.004c-0.232-0.049-0.437-0.134-0.621-0.25l0.008 0.005c-0.184-0.115-0.335-0.266-0.447-0.445l-0.003-0.006c-0.119-0.201-0.19-0.442-0.192-0.7v-0h1.093c-0 0.004-0 0.008-0 0.013 0 0.114 0.030 0.221 0.083 0.313l-0.002-0.003z"></path>
<path fill="#fff" style="fill: var(--color1, #fff)" d="M11.491 17.76c-0.008-0-0.018-0-0.027-0-0.161 0-0.312 0.047-0.438 0.129l0.003-0.002c-0.125 0.085-0.227 0.193-0.302 0.32l-0.003 0.005c-0.075 0.126-0.133 0.272-0.165 0.428l-0.002 0.009c-0.030 0.139-0.047 0.3-0.047 0.464v0c0.001 0.16 0.018 0.316 0.050 0.466l-0.003-0.015c0.032 0.16 0.087 0.303 0.161 0.433l-0.004-0.007c0.073 0.128 0.173 0.233 0.292 0.311l0.003 0.002c0.122 0.077 0.27 0.122 0.428 0.122 0.008 0 0.016-0 0.023-0l-0.001 0c0.018 0.001 0.039 0.002 0.061 0.002 0.223 0 0.426-0.087 0.577-0.228l-0 0c0.151-0.165 0.253-0.379 0.279-0.615l0-0.005h1.111c-0.045 0.511-0.286 0.958-0.647 1.271l-0.002 0.002c-0.35 0.274-0.797 0.439-1.283 0.439-0.031 0-0.061-0.001-0.092-0.002l0.004 0c-0.008 0-0.018 0-0.028 0-0.301 0-0.588-0.058-0.851-0.163l0.015 0.005c-0.265-0.106-0.49-0.259-0.676-0.45l-0.001-0c-0.182-0.189-0.328-0.413-0.426-0.662l-0.005-0.014c-0.097-0.248-0.153-0.535-0.153-0.835 0-0.010 0-0.020 0-0.030v0.002c-0-0.006-0-0.014-0-0.022 0-0.315 0.052-0.617 0.148-0.899l-0.006 0.020c0.099-0.274 0.244-0.509 0.429-0.707l-0.001 0.001c0.185-0.201 0.41-0.361 0.664-0.469l0.013-0.005c0.257-0.108 0.556-0.172 0.869-0.172 0.011 0 0.023 0 0.034 0l-0.002-0c0.004-0 0.008-0 0.013-0 0.251 0 0.495 0.035 0.725 0.101l-0.018-0.005c0.235 0.066 0.44 0.167 0.621 0.299l-0.005-0.004c0.376 0.272 0.622 0.704 0.638 1.194l0 0.002h-1.127c-0.027-0.405-0.362-0.723-0.771-0.723-0.028 0-0.055 0.001-0.082 0.004l0.003-0z"></path>
<path fill="#fff" style="fill: var(--color1, #fff)" d="M14.094 18.285c0.006-0.251 0.081-0.484 0.206-0.682l-0.003 0.005c0.117-0.176 0.268-0.321 0.444-0.427l0.006-0.003c0.179-0.103 0.387-0.181 0.607-0.223l0.012-0.002c0.209-0.044 0.448-0.069 0.694-0.070h0c0.226 0 0.448 0.017 0.665 0.048l-0.025-0.003c0.22 0.029 0.42 0.090 0.604 0.179l-0.012-0.005c0.18 0.084 0.33 0.205 0.444 0.355l0.002 0.003c0.108 0.158 0.172 0.353 0.172 0.564 0 0.017-0 0.035-0.001 0.052l0-0.002v2.181c-0 0.005-0 0.011-0 0.017 0 0.185 0.011 0.368 0.034 0.547l-0.002-0.021c0.011 0.144 0.051 0.277 0.115 0.395l-0.003-0.005h-1.17c-0.018-0.054-0.034-0.121-0.046-0.189l-0.001-0.009c-0.013-0.058-0.023-0.129-0.029-0.201l-0-0.006c-0.174 0.181-0.391 0.318-0.636 0.394l-0.011 0.003c-0.227 0.072-0.487 0.113-0.758 0.113-0.001 0-0.003 0-0.004 0h0c-0.006 0-0.013 0-0.020 0-0.192 0-0.378-0.026-0.554-0.076l0.014 0.003c-0.173-0.048-0.323-0.125-0.454-0.227l0.003 0.002c-0.129-0.103-0.232-0.234-0.302-0.383l-0.003-0.007c-0.070-0.156-0.111-0.337-0.111-0.529 0-0.011 0-0.021 0-0.032l-0 0.002c-0.001-0.014-0.001-0.030-0.001-0.046 0-0.198 0.047-0.384 0.13-0.549l-0.003 0.007c0.080-0.149 0.189-0.273 0.321-0.367l0.003-0.002c0.129-0.090 0.279-0.161 0.441-0.205l0.010-0.002c0.136-0.039 0.31-0.078 0.488-0.107l0.028-0.004q0.259-0.041 0.512-0.065c0.169-0.015 0.322-0.040 0.472-0.076l-0.021 0.004c0.118-0.026 0.222-0.075 0.311-0.143l-0.002 0.001c0.059-0.057 0.095-0.136 0.095-0.224 0-0.020-0.002-0.039-0.005-0.057l0 0.002c0-0.008 0.001-0.018 0.001-0.028 0-0.097-0.023-0.189-0.063-0.271l0.002 0.004c-0.041-0.065-0.095-0.117-0.16-0.154l-0.002-0.001c-0.065-0.039-0.141-0.067-0.222-0.081l-0.004-0c-0.084-0.013-0.181-0.020-0.28-0.020-0.003 0-0.006 0-0.009 0h0c-0.014-0.001-0.031-0.001-0.048-0.001-0.181 0-0.35 0.055-0.489 0.15l0.003-0.002c-0.137 0.119-0.224 0.293-0.225 0.486v0h-1.165zM16.753 19.137c-0.051 0.044-0.112 0.079-0.179 0.1l-0.004 0.001c-0.060 0.021-0.136 0.043-0.213 0.059l-0.012 0.002c-0.092 0.016-0.183 0.038-0.27 0.038s-0.185 0.025-0.275 0.041c-0.101 0.019-0.186 0.042-0.269 0.070l0.015-0.004c-0.086 0.026-0.161 0.064-0.228 0.112l0.002-0.002c-0.062 0.046-0.113 0.104-0.15 0.171l-0.001 0.003c-0.036 0.072-0.057 0.156-0.057 0.246 0 0.008 0 0.016 0 0.023l-0-0.001c-0 0.005-0 0.012-0 0.018 0 0.088 0.021 0.171 0.058 0.244l-0.001-0.003c0.036 0.069 0.088 0.125 0.152 0.166l0.002 0.001c0.065 0.040 0.14 0.070 0.221 0.085l0.004 0.001c0.081 0.016 0.173 0.025 0.268 0.025 0 0 0 0 0 0v0c0.018 0.001 0.038 0.002 0.059 0.002 0.171 0 0.332-0.042 0.474-0.117l-0.006 0.003c0.114-0.067 0.207-0.159 0.273-0.269l0.002-0.003c0.055-0.092 0.094-0.2 0.11-0.315l0.001-0.005c0.013-0.076 0.023-0.167 0.027-0.259l0-0.005v-0.426z"></path>
<path fill="#fff" style="fill: var(--color1, #fff)" d="M19.894 16.994v0.541h0.016c0.127-0.216 0.309-0.387 0.527-0.497l0.007-0.003c0.203-0.097 0.442-0.153 0.693-0.153 0.007 0 0.015 0 0.022 0h-0.001c0.014-0 0.031-0.001 0.047-0.001 0.293 0 0.57 0.069 0.815 0.192l-0.010-0.005c0.237 0.123 0.434 0.29 0.59 0.492l0.003 0.004c0.155 0.204 0.275 0.444 0.346 0.704l0.003 0.015c0.072 0.252 0.113 0.542 0.113 0.841 0 0.005 0 0.010-0 0.016v-0.001c0 0.004 0 0.008 0 0.012 0 0.285-0.041 0.56-0.118 0.82l0.005-0.020c-0.076 0.264-0.194 0.494-0.348 0.695l0.004-0.005c-0.157 0.198-0.352 0.358-0.576 0.471l-0.010 0.004c-0.223 0.113-0.487 0.178-0.766 0.178-0.014 0-0.029-0-0.043-0.001l0.002 0c-0.005 0-0.011 0-0.017 0-0.254 0-0.495-0.058-0.709-0.162l0.010 0.004c-0.221-0.108-0.403-0.267-0.536-0.462l-0.003-0.005h-0.009v1.988h-1.152v-5.663h1.095zM21.39 20.32c0.126-0.078 0.229-0.181 0.304-0.303l0.002-0.004c0.078-0.122 0.136-0.265 0.166-0.418l0.001-0.008c0.031-0.149 0.049-0.32 0.050-0.496v-0c0-0.002 0-0.005 0-0.007 0-0.173-0.019-0.342-0.055-0.504l0.003 0.015c-0.035-0.164-0.095-0.308-0.177-0.438l0.003 0.005c-0.081-0.126-0.186-0.23-0.309-0.306l-0.004-0.002c-0.116-0.061-0.254-0.097-0.4-0.097-0.024 0-0.048 0.001-0.071 0.003l0.003-0c-0.010-0-0.022-0.001-0.034-0.001-0.163 0-0.315 0.044-0.446 0.12l0.004-0.002c-0.126 0.078-0.229 0.18-0.306 0.3l-0.002 0.004c-0.078 0.124-0.136 0.268-0.165 0.422l-0.001 0.008c-0.029 0.144-0.045 0.309-0.045 0.477 0 0.008 0 0.016 0 0.024v-0.001c0 0.002 0 0.005 0 0.008 0 0.173 0.019 0.341 0.055 0.503l-0.003-0.015c0.036 0.154 0.095 0.289 0.174 0.411l-0.003-0.005c0.18 0.254 0.473 0.418 0.804 0.418 0.166 0 0.322-0.041 0.459-0.114l-0.005 0.003z"></path>
<path fill="#fff" style="fill: var(--color1, #fff)" d="M24.985 20.183c0.199 0.158 0.454 0.253 0.731 0.253 0.23 0 0.445-0.066 0.626-0.18l-0.005 0.003c0.141-0.085 0.249-0.212 0.307-0.365l0.002-0.005h1.010c-0.12 0.447-0.385 0.82-0.74 1.076l-0.006 0.004c-0.327 0.204-0.725 0.326-1.151 0.326-0.023 0-0.046-0-0.069-0.001l0.003 0c-0.014 0-0.030 0-0.047 0-0.307 0-0.601-0.058-0.871-0.164l0.016 0.006c-0.265-0.104-0.491-0.257-0.675-0.45l-0.001-0.001c-0.182-0.194-0.327-0.426-0.421-0.682l-0.005-0.014c-0.096-0.258-0.151-0.555-0.151-0.866 0-0.012 0-0.025 0-0.037l-0 0.002c-0-0.007-0-0.016-0-0.025 0-0.306 0.056-0.599 0.159-0.869l-0.006 0.017c0.199-0.53 0.598-0.945 1.102-1.162l0.013-0.005c0.249-0.108 0.54-0.171 0.845-0.171 0.009 0 0.019 0 0.028 0h-0.001c0.014-0 0.030-0.001 0.047-0.001 0.323 0 0.628 0.077 0.897 0.213l-0.011-0.005c0.263 0.136 0.482 0.323 0.65 0.549l0.004 0.005c0.174 0.227 0.308 0.495 0.386 0.786l0.004 0.016c0.056 0.216 0.089 0.464 0.089 0.72 0 0.075-0.003 0.149-0.008 0.223l0.001-0.010h-3.033c-0.001 0.016-0.001 0.035-0.001 0.053 0 0.291 0.107 0.558 0.284 0.762l-0.001-0.001zM26.287 17.985c-0.145-0.141-0.344-0.228-0.563-0.228-0.023 0-0.046 0.001-0.069 0.003l0.003-0c-0.009-0-0.019-0-0.029-0-0.153 0-0.298 0.034-0.427 0.095l0.006-0.003c-0.116 0.056-0.213 0.132-0.292 0.224l-0.001 0.001c-0.067 0.083-0.12 0.18-0.152 0.287l-0.002 0.006c-0.025 0.080-0.044 0.174-0.052 0.27l-0 0.005h1.873c-0.038-0.254-0.143-0.479-0.297-0.662l0.002 0.002z"></path>
<path fill="#fff" style="fill: var(--color1, #fff)" d="M29.377 20.146c0.050 0.090 0.116 0.166 0.196 0.224l0.002 0.001c0.080 0.056 0.173 0.099 0.274 0.125l0.006 0.001c0.097 0.026 0.209 0.041 0.324 0.041 0.002 0 0.004 0 0.005 0h-0c0.091-0.001 0.178-0.012 0.263-0.031l-0.008 0.002c0.092-0.019 0.173-0.051 0.248-0.092l-0.004 0.002c0.073-0.041 0.134-0.096 0.181-0.161l0.001-0.002c0.045-0.067 0.072-0.149 0.072-0.238 0-0.006-0-0.012-0-0.018l0 0.001c-0.013-0.199-0.159-0.36-0.349-0.396l-0.003-0c-0.26-0.098-0.579-0.191-0.906-0.26l-0.045-0.008q-0.25-0.056-0.491-0.133c-0.162-0.051-0.303-0.12-0.432-0.207l0.006 0.004c-0.122-0.082-0.223-0.188-0.297-0.311l-0.002-0.004c-0.071-0.126-0.113-0.277-0.113-0.437 0-0.010 0-0.021 0-0.031l-0 0.001c-0.001-0.019-0.002-0.040-0.002-0.062 0-0.225 0.059-0.437 0.163-0.62l-0.003 0.006c0.104-0.171 0.244-0.309 0.411-0.407l0.006-0.003c0.168-0.098 0.364-0.172 0.572-0.21l0.011-0.002c0.198-0.039 0.425-0.061 0.658-0.061 0.006 0 0.013 0 0.019 0h-0.001c0.001 0 0.002 0 0.003 0 0.232 0 0.459 0.024 0.678 0.069l-0.022-0.004c0.216 0.044 0.408 0.123 0.58 0.23l-0.007-0.004c0.169 0.106 0.309 0.243 0.414 0.405l0.003 0.005c0.114 0.184 0.186 0.405 0.198 0.641l0 0.003h-1.095c0-0.004 0-0.009 0-0.013 0-0.186-0.101-0.348-0.25-0.436l-0.002-0.001c-0.148-0.074-0.322-0.118-0.506-0.118-0.010 0-0.020 0-0.029 0l0.001-0c-0 0-0.001 0-0.001 0-0.074 0-0.148 0.004-0.22 0.012l0.009-0.001c-0.076 0.007-0.147 0.026-0.212 0.054l0.005-0.002c-0.063 0.027-0.115 0.067-0.157 0.117l-0.001 0.001c-0.041 0.052-0.066 0.119-0.066 0.191 0 0.006 0 0.011 0 0.017l-0-0.001c-0 0.003-0 0.007-0 0.011 0 0.097 0.044 0.184 0.112 0.241l0 0c0.083 0.068 0.182 0.122 0.289 0.156l0.006 0.002c0.11 0.038 0.25 0.076 0.393 0.106l0.024 0.004 0.473 0.115c0.2 0.045 0.365 0.092 0.525 0.148l-0.034-0.010c0.163 0.058 0.304 0.134 0.43 0.228l-0.004-0.003c0.123 0.089 0.223 0.2 0.297 0.328l0.003 0.005c0.071 0.132 0.113 0.289 0.113 0.456 0 0.012-0 0.024-0.001 0.037l0-0.002c0.001 0.015 0.001 0.034 0.001 0.052 0 0.456-0.24 0.856-0.6 1.081l-0.005 0.003c-0.176 0.111-0.382 0.195-0.602 0.237l-0.011 0.002c-0.211 0.044-0.453 0.070-0.701 0.070h-0c-0.003 0-0.008 0-0.012 0-0.249 0-0.491-0.026-0.725-0.076l0.023 0.004c-0.234-0.047-0.442-0.132-0.628-0.248l0.008 0.005c-0.184-0.115-0.335-0.267-0.447-0.445l-0.003-0.006c-0.119-0.201-0.19-0.442-0.192-0.7v-0h1.095c0 0.001 0 0.002 0 0.003 0 0.117 0.032 0.226 0.087 0.32l-0.002-0.003z"></path>
<path fill="#fff" style="fill: var(--color1, #fff)" d="M5.264 10.614c-0.031-0.123-0.074-0.23-0.128-0.33l0.004 0.008c-0.054-0.098-0.122-0.182-0.202-0.251l-0.001-0.001c-0.082-0.071-0.179-0.127-0.284-0.165l-0.006-0.002c-0.108-0.037-0.233-0.059-0.363-0.059-0.008 0-0.016 0-0.023 0l0.001-0c-0.008-0-0.018-0-0.027-0-0.193 0-0.375 0.049-0.533 0.134l0.006-0.003c-0.158 0.084-0.289 0.201-0.388 0.341l-0.002 0.004c-0.098 0.141-0.176 0.306-0.223 0.483l-0.002 0.011c-0.045 0.169-0.070 0.363-0.070 0.563s0.026 0.394 0.074 0.579l-0.004-0.016c0.050 0.188 0.127 0.352 0.229 0.499l-0.003-0.005c0.098 0.144 0.226 0.261 0.375 0.344l0.006 0.003c0.152 0.081 0.332 0.129 0.523 0.129 0.011 0 0.022-0 0.033-0l-0.002 0c0.009 0 0.021 0.001 0.032 0.001 0.139 0 0.271-0.028 0.392-0.080l-0.007 0.002c0.122-0.055 0.226-0.131 0.31-0.225l0.001-0.001c0.085-0.095 0.154-0.206 0.2-0.329l0.002-0.007c0.047-0.12 0.082-0.26 0.096-0.406l0.001-0.007h0.687c-0.013 0.241-0.069 0.467-0.16 0.672l0.005-0.012c-0.089 0.201-0.21 0.372-0.358 0.516l-0 0c-0.148 0.142-0.324 0.256-0.519 0.332l-0.011 0.004c-0.193 0.076-0.417 0.12-0.652 0.12-0.009 0-0.017-0-0.026-0h0.001c-0.009 0-0.020 0-0.030 0-0.282 0-0.55-0.062-0.791-0.172l0.012 0.005c-0.239-0.11-0.441-0.262-0.604-0.449l-0.002-0.002c-0.163-0.191-0.293-0.416-0.377-0.662l-0.004-0.014c-0.084-0.239-0.133-0.514-0.133-0.801 0-0.006 0-0.012 0-0.018v0.001c0-0.003-0-0.007-0-0.010 0-0.287 0.049-0.562 0.138-0.818l-0.005 0.017c0.088-0.26 0.218-0.485 0.383-0.679l-0.002 0.003c0.166-0.188 0.368-0.34 0.595-0.446l0.011-0.005c0.229-0.108 0.499-0.172 0.782-0.172 0.014 0 0.028 0 0.042 0l-0.002-0c0.004-0 0.008-0 0.012-0 0.222 0 0.435 0.034 0.636 0.097l-0.015-0.004c0.202 0.062 0.377 0.154 0.531 0.273l-0.004-0.003c0.152 0.117 0.277 0.261 0.37 0.426l0.004 0.007c0.093 0.168 0.156 0.366 0.175 0.575l0 0.006h-0.708z"></path>
<path fill="#fff" style="fill: var(--color1, #fff)" d="M6.542 9.336h0.642v4.023h-0.642v-4.023z"></path>
<path fill="#fff" style="fill: var(--color1, #fff)" d="M8.385 12.068c0 0.001 0 0.002 0 0.004 0 0.115 0.017 0.226 0.049 0.331l-0.002-0.008c0.032 0.106 0.081 0.199 0.145 0.279l-0.001-0.002c0.065 0.080 0.147 0.144 0.239 0.188l0.004 0.002c0.096 0.044 0.209 0.070 0.327 0.070 0.008 0 0.016-0 0.023-0l-0.001 0c0.009 0 0.020 0.001 0.031 0.001 0.159 0 0.307-0.048 0.43-0.131l-0.003 0.002c0.12-0.090 0.21-0.214 0.256-0.358l0.001-0.005h0.608c-0.064 0.304-0.234 0.56-0.47 0.732l-0.003 0.002c-0.112 0.082-0.242 0.147-0.383 0.189l-0.009 0.002c-0.134 0.041-0.289 0.065-0.449 0.065-0 0-0.001 0-0.001 0h0c-0.009 0-0.019 0-0.029 0-0.209 0-0.408-0.041-0.59-0.117l0.010 0.004c-0.177-0.074-0.328-0.181-0.45-0.315l-0.001-0.001c-0.127-0.133-0.226-0.292-0.29-0.468l-0.003-0.009c-0.052-0.168-0.082-0.362-0.082-0.563 0-0.022 0-0.043 0.001-0.065l-0 0.003c0-0.002 0-0.004 0-0.007 0-0.208 0.036-0.408 0.103-0.594l-0.004 0.012c0.066-0.189 0.162-0.353 0.283-0.493l-0.002 0.002c0.243-0.277 0.598-0.451 0.994-0.451 0.012 0 0.024 0 0.035 0l-0.002-0c0.006-0 0.013-0 0.020-0 0.218 0 0.424 0.053 0.604 0.148l-0.007-0.003c0.18 0.095 0.33 0.223 0.448 0.378l0.002 0.003c0.117 0.153 0.208 0.332 0.261 0.528l0.002 0.011c0.036 0.13 0.057 0.279 0.057 0.433 0 0.070-0.004 0.14-0.013 0.208l0.001-0.008h-2.141zM9.884 11.644c-0.008-0.107-0.031-0.207-0.068-0.3l0.002 0.007c-0.036-0.095-0.085-0.176-0.147-0.246l0.001 0.001c-0.062-0.069-0.137-0.126-0.221-0.167l-0.004-0.002c-0.085-0.041-0.185-0.065-0.29-0.065-0.002 0-0.004 0-0.005 0h0c-0.003-0-0.007-0-0.012-0-0.106 0-0.208 0.022-0.3 0.061l0.005-0.002c-0.093 0.040-0.171 0.095-0.236 0.164l-0 0c-0.065 0.069-0.118 0.151-0.156 0.24l-0.002 0.005c-0.038 0.090-0.062 0.194-0.065 0.303l-0 0.001h1.499z"></path>
<path fill="#fff" style="fill: var(--color1, #fff)" d="M13.458 12.71c-0.001 0.007-0.001 0.016-0.001 0.024 0 0.053 0.012 0.102 0.033 0.147l-0.001-0.002c0.024 0.032 0.062 0.053 0.105 0.053 0.006 0 0.012-0 0.017-0.001l-0.001 0h0.072c0.014 0.002 0.029 0.002 0.045 0.002s0.032-0.001 0.047-0.003l-0.002 0v0.451l-0.090 0.009-0.11 0.025-0.113 0.018h-0.097c-0.007 0-0.015 0-0.023 0-0.111 0-0.216-0.029-0.306-0.081l0.003 0.002c-0.092-0.063-0.155-0.161-0.169-0.275l-0-0.002c-0.129 0.123-0.287 0.217-0.463 0.268l-0.008 0.002c-0.161 0.052-0.346 0.084-0.538 0.086h-0.001c-0.001 0-0.003 0-0.005 0-0.133 0-0.262-0.020-0.383-0.057l0.009 0.002c-0.121-0.036-0.227-0.090-0.32-0.16l0.003 0.002c-0.094-0.070-0.17-0.159-0.223-0.262l-0.002-0.004c-0.050-0.103-0.079-0.223-0.079-0.351 0-0.010 0-0.019 0.001-0.029l-0 0.001c-0.001-0.014-0.001-0.030-0.001-0.046 0-0.148 0.037-0.287 0.103-0.409l-0.002 0.005c0.063-0.11 0.151-0.2 0.256-0.264l0.003-0.002c0.104-0.062 0.225-0.11 0.353-0.136l0.008-0.001q0.201-0.043 0.403-0.065c0.091-0.019 0.205-0.036 0.32-0.046l0.013-0.001c0.103-0.008 0.198-0.025 0.29-0.050l-0.011 0.003c0.072-0.013 0.136-0.042 0.19-0.084l-0.001 0.001c0.044-0.050 0.071-0.116 0.071-0.188 0-0.008-0-0.016-0.001-0.024l0 0.001c0-0.004 0-0.010 0-0.015 0-0.070-0.022-0.135-0.060-0.189l0.001 0.001c-0.038-0.051-0.087-0.093-0.144-0.121l-0.002-0.001c-0.056-0.027-0.122-0.047-0.191-0.056l-0.003-0c-0.061-0.008-0.131-0.013-0.203-0.014h-0c-0.011-0.001-0.025-0.001-0.038-0.001-0.152 0-0.295 0.042-0.416 0.116l0.004-0.002c-0.113 0.078-0.188 0.204-0.196 0.348l-0 0.001h-0.638c0.005-0.174 0.054-0.335 0.138-0.473l-0.002 0.004c0.077-0.123 0.179-0.223 0.298-0.297l0.004-0.002c0.119-0.073 0.258-0.128 0.407-0.157l0.008-0.001c0.141-0.029 0.303-0.045 0.469-0.045 0.001 0 0.003 0 0.004 0h-0c0.001 0 0.001 0 0.002 0 0.149 0 0.295 0.016 0.435 0.048l-0.013-0.002c0.14 0.028 0.265 0.076 0.377 0.143l-0.006-0.003c0.109 0.066 0.199 0.154 0.266 0.258l0.002 0.003c0.065 0.106 0.104 0.235 0.104 0.373 0 0.010-0 0.020-0.001 0.030l0-0.001v1.499zM12.814 11.901c-0.103 0.065-0.226 0.106-0.358 0.115l-0.002 0q-0.225 0.020-0.428 0.059c-0.076 0.013-0.142 0.029-0.206 0.050l0.010-0.003c-0.065 0.021-0.121 0.050-0.171 0.087l0.002-0.001c-0.049 0.037-0.088 0.085-0.114 0.14l-0.001 0.002c-0.027 0.058-0.043 0.127-0.043 0.199 0 0.005 0 0.009 0 0.013v-0.001c-0 0.003-0 0.006-0 0.010 0 0.065 0.023 0.124 0.061 0.171l-0-0c0.041 0.048 0.090 0.086 0.146 0.114l0.003 0.001c0.056 0.027 0.12 0.047 0.188 0.058l0.004 0.001c0.057 0.010 0.122 0.016 0.189 0.016h0c0.080-0.001 0.158-0.011 0.232-0.028l-0.007 0.001c0.091-0.022 0.17-0.057 0.242-0.103l-0.003 0.002c0.073-0.045 0.134-0.102 0.181-0.169l0.001-0.002c0.047-0.068 0.075-0.153 0.075-0.244 0-0.005-0-0.009-0-0.014l0 0.001v-0.473z"></path>
<path fill="#fff" style="fill: var(--color1, #fff)" d="M14.148 10.445h0.604v0.554h0.011c0.023-0.086 0.061-0.161 0.112-0.227l-0.001 0.002c0.058-0.078 0.123-0.145 0.196-0.203l0.002-0.002c0.074-0.059 0.159-0.11 0.25-0.146l0.007-0.002c0.085-0.036 0.184-0.056 0.288-0.056h0c0.023-0.001 0.050-0.002 0.078-0.002s0.055 0.001 0.081 0.002l-0.004-0h0.088v0.636l-0.149-0.016c-0.021-0.001-0.045-0.002-0.069-0.002s-0.048 0.001-0.072 0.002l0.003-0c-0.001 0-0.002 0-0.003 0-0.11 0-0.215 0.024-0.308 0.067l0.005-0.002c-0.097 0.042-0.179 0.102-0.245 0.175l-0.001 0.001c-0.073 0.089-0.131 0.193-0.167 0.307l-0.002 0.007c-0.039 0.12-0.061 0.258-0.061 0.402 0 0.009 0 0.018 0 0.028l-0-0.001v1.386h-0.645v-2.907z"></path>
<path fill="#fff" style="fill: var(--color1, #fff)" d="M17.332 9.336h0.732l1.010 3.184h0.018l1.023-3.184h0.714l-1.375 4.023h-0.782z"></path>
<path fill="#fff" style="fill: var(--color1, #fff)" d="M21.215 9.336h0.642v0.608h-0.642v-0.608zM21.215 10.447h0.642v2.912h-0.642v-2.914z"></path>
<path fill="#fff" style="fill: var(--color1, #fff)" d="M23.056 12.068c0 0.001 0 0.002 0 0.004 0 0.115 0.017 0.226 0.049 0.331l-0.002-0.008c0.032 0.106 0.081 0.199 0.145 0.279l-0.001-0.002c0.065 0.080 0.147 0.144 0.239 0.188l0.004 0.002c0.096 0.044 0.209 0.070 0.327 0.070 0.008 0 0.016-0 0.023-0l-0.001 0c0.010 0 0.022 0.001 0.034 0.001 0.155 0 0.299-0.046 0.42-0.124l-0.003 0.002c0.12-0.090 0.21-0.214 0.256-0.358l0.001-0.005h0.608c-0.064 0.304-0.234 0.56-0.47 0.732l-0.003 0.002c-0.112 0.082-0.242 0.147-0.383 0.189l-0.009 0.002c-0.134 0.041-0.289 0.065-0.449 0.065-0 0-0.001 0-0.001 0h0c-0.009 0-0.019 0-0.029 0-0.209 0-0.408-0.041-0.59-0.117l0.010 0.004c-0.177-0.074-0.328-0.181-0.45-0.315l-0.001-0.001c-0.121-0.135-0.215-0.297-0.272-0.475l-0.003-0.009c-0.059-0.178-0.093-0.383-0.093-0.596 0-0.010 0-0.020 0-0.029l-0 0.001c0-0.002 0-0.005 0-0.007 0-0.208 0.036-0.408 0.103-0.593l-0.004 0.012c0.066-0.189 0.162-0.353 0.283-0.493l-0.002 0.002c0.243-0.277 0.598-0.451 0.994-0.451 0.012 0 0.024 0 0.035 0l-0.002-0c0.006-0 0.014-0 0.021-0 0.218 0 0.423 0.053 0.604 0.148l-0.007-0.003c0.18 0.095 0.33 0.223 0.448 0.378l0.002 0.003c0.117 0.154 0.207 0.335 0.259 0.532l0.002 0.011c0.035 0.128 0.056 0.275 0.056 0.427 0 0.073-0.005 0.144-0.014 0.214l0.001-0.008h-2.141zM24.554 11.644c-0.008-0.107-0.031-0.207-0.068-0.3l0.002 0.007c-0.036-0.095-0.085-0.176-0.147-0.246l0.001 0.001c-0.062-0.069-0.137-0.126-0.221-0.167l-0.004-0.002c-0.084-0.040-0.182-0.063-0.285-0.063-0.003 0-0.005 0-0.008 0h0c-0.003-0-0.007-0-0.011-0-0.107 0-0.208 0.022-0.3 0.061l0.005-0.002c-0.088 0.041-0.163 0.097-0.225 0.164l-0 0.001c-0.065 0.069-0.118 0.151-0.156 0.24l-0.002 0.005c-0.038 0.090-0.062 0.194-0.065 0.303l-0 0.001h1.499z"></path>
<path fill="#fff" style="fill: var(--color1, #fff)" d="M25.424 10.445h0.676l0.57 2.175 0.545-2.175h0.665l0.525 2.175 0.602-2.175h0.654l-0.901 2.914h-0.66l-0.541-2.163-0.534 2.163h-0.676z"></path>
</symbol>
<symbol id="icon-comment" viewBox="0 0 32 32">
<title>comment</title>
<path fill="#2f5572" style="fill: var(--color2, #2f5572)" d="M0.36 0.040c-0.008-0.001-0.017-0.001-0.026-0.001-0.185 0-0.335 0.15-0.335 0.335 0 0.009 0 0.018 0.001 0.027l-0-0.001v23.24c0 0.199 0.161 0.36 0.36 0.36v0h23.64l8 8v-31.64c0.001-0.008 0.001-0.017 0.001-0.026 0-0.185-0.15-0.335-0.335-0.335-0.009 0-0.018 0-0.027 0.001l0.001-0h-31.24z"></path>
</symbol>
<symbol id="icon-facebook" viewBox="0 0 32 32">
<title>facebook</title>
<path fill="#fff" style="fill: var(--color1, #fff)" d="M24.175 0.236v5.097h-2.918c-0.102-0.014-0.22-0.021-0.34-0.021-0.708 0-1.352 0.272-1.834 0.716l0.002-0.002c-0.358 0.514-0.572 1.152-0.572 1.84 0 0.082 0.003 0.163 0.009 0.243l-0.001-0.011v3.634h5.478l-0.762 5.691h-4.716v14.575h-5.745v-14.59h-4.777v-5.691h4.777v-4.213q0-3.573 1.943-5.547c1.237-1.217 2.935-1.969 4.809-1.969 0.134 0 0.266 0.004 0.398 0.011l-0.018-0.001c0.14-0.002 0.305-0.004 0.471-0.004 1.338 0 2.656 0.087 3.948 0.256l-0.152-0.016z"></path>
</symbol>
<symbol id="icon-fire" viewBox="0 0 28 32">
<title>fire</title>
<path fill="#d4953d" style="fill: var(--color3, #d4953d)" d="M8 0c4 8-8 12-8 20s8 12 8 12c-3.92-7.92 8-12 8-20s-8-12-8-12zM20 12c4 8-8 12-8 20h12c1.6 0 4-2 4-8 0-8-8-12-8-12z"></path>
</symbol>
<symbol id="icon-globe" viewBox="0 0 32 32">
<title>globe</title>
<path fill="#d4953f" style="fill: var(--color4, #d4953f)" d="M16 0c-8.837 0-16 7.163-16 16s7.163 16 16 16c8.837 0 16-7.163 16-16v0c0-8.837-7.163-16-16-16v0zM16 4c1.364 0.052 2.649 0.327 3.841 0.788l-0.081-0.028c-0.84 0.8-1.8 1.5-1.64 2.24s2.76 0.5 2.76 2c0 1.080-1.68 1.4-0.5 2.64 1.4 1.4-2.56 3.92-2.64 5.76-0.12 3.32 3.36 3.88 6.12 3.88 1.68 0 2.12 0.8 2 1.76-2.212 3.044-5.76 5.001-9.765 5.001-0.040 0-0.081-0-0.121-0.001l0.006 0c-1.535-0.023-2.989-0.345-4.315-0.908l0.075 0.028c0.88-1.76-1.12-5.24-3-6.36-0.92-0.92-2.88-0.56-4-1-0.394-0.986-0.665-2.128-0.757-3.32l-0.003-0.040c0.124-0.217 0.354-0.36 0.618-0.36 0.008 0 0.016 0 0.023 0l-0.001-0c0.76 0 1.8 1.5 2.36 1.36 0.7-0.16-2.98-5.24-1.26-6.24 0.8-0.5 2.4 1.56 1.88-0.64-0.5-2.040 1.44-1.12 2.64-1.64 1.040-0.44 1.8-1.64 0.5-2.36-0.335-0.22-0.624-0.471-0.876-0.755l-0.004-0.005c1.747-1.091 3.866-1.744 6.136-1.76l0.004-0v-0.040zM25.24 8.36c0.674 0.834 1.263 1.781 1.726 2.797l0.034 0.083v0.12c-0.265 0.326-0.554 0.615-0.869 0.871l-0.011 0.009c-1.12 1.12-1.28-0.84-1.76-1.24-0.5-0.5-2.4 0.080-2.64-0.5-0.28-0.74 2-1.7 3.52-2.14z"></path>
</symbol>
<symbol id="icon-instagram" viewBox="0 0 32 32">
<title>instagram</title>
<path fill="#fff" style="fill: var(--color1, #fff)" d="M28.374 27.034v-13.498h-2.811c0.272 0.814 0.431 1.751 0.434 2.725v0.002c0 0.019 0 0.042 0 0.065 0 1.766-0.496 3.416-1.356 4.819l0.023-0.040c-0.893 1.468-2.119 2.652-3.577 3.471l-0.049 0.025c-1.416 0.815-3.113 1.295-4.922 1.295-0.026 0-0.052-0-0.078-0l0.004 0c-0.042 0.001-0.091 0.001-0.141 0.001-2.676 0-5.1-1.080-6.86-2.828l0.001 0.001c-1.798-1.674-2.919-4.054-2.919-6.696 0-0.056 0-0.112 0.002-0.168l-0 0.008c-0.001-0.044-0.001-0.096-0.001-0.148 0-0.914 0.137-1.797 0.391-2.628l-0.017 0.064h-2.933v13.528c-0 0.009-0 0.020-0 0.031 0 0.678 0.543 1.229 1.218 1.241l0.001 0h22.319c0.006 0 0.012 0 0.019 0 0.34 0 0.648-0.137 0.873-0.358l-0 0c0.235-0.221 0.381-0.535 0.381-0.882 0-0.011-0-0.022-0-0.034l0 0.002zM22.456 15.935c0-0.022 0-0.048 0-0.074 0-1.709-0.726-3.248-1.886-4.325l-0.004-0.003c-1.14-1.131-2.709-1.829-4.442-1.829-0.045 0-0.090 0-0.135 0.001l0.007-0c-0.023-0-0.050-0-0.078-0-1.726 0-3.289 0.696-4.424 1.821l0-0c-1.159 1.081-1.882 2.617-1.882 4.322 0 0.028 0 0.057 0.001 0.085l-0-0.004c-0 0.026-0.001 0.057-0.001 0.088 0 1.705 0.723 3.241 1.879 4.319l0.004 0.003c1.136 1.13 2.702 1.829 4.431 1.829 0.025 0 0.049-0 0.074-0l-0.004 0c0.038 0.001 0.083 0.001 0.128 0.001 1.733 0 3.302-0.699 4.442-1.83l-0 0c1.164-1.081 1.89-2.62 1.89-4.329 0-0.026-0-0.052-0-0.078l0 0.004zM28.367 8.44v-3.443c0-0.002 0-0.004 0-0.006 0-0.387-0.157-0.738-0.411-0.992l-0-0c-0.25-0.263-0.603-0.427-0.994-0.427-0.001 0-0.003 0-0.004 0h-3.641c-0.001 0-0.003 0-0.004 0-0.391 0-0.744 0.164-0.993 0.426l-0.001 0.001c-0.254 0.254-0.411 0.604-0.411 0.992 0 0.002 0 0.004 0 0.006v-0 3.443c-0 0.011-0 0.025-0 0.038 0 0.779 0.625 1.412 1.401 1.424h3.657c0.78-0.009 1.409-0.643 1.409-1.424 0-0.005-0-0.011-0-0.016v0.001zM31.992 4.106v23.789c-0.013 2.258-1.84 4.085-4.097 4.098h-23.79c-0.014 0-0.030 0-0.047 0-1.118 0-2.128-0.464-2.847-1.21l-0.001-0.001c-0.747-0.72-1.211-1.73-1.211-2.848 0-0.014 0-0.027 0-0.041l-0 0.002v-23.789c-0-0.014-0-0.030-0-0.047 0-1.118 0.464-2.128 1.21-2.847l0.001-0.001c0.72-0.747 1.73-1.211 2.848-1.211 0.016 0 0.033 0 0.049 0l-0.002-0h23.789c0.014-0 0.030-0 0.047-0 1.118 0 2.128 0.464 2.847 1.21l0.001 0.001c0.743 0.72 1.204 1.726 1.204 2.841 0 0.019-0 0.038-0 0.057l0-0.003z"></path>
</symbol>
<symbol id="icon-mail" viewBox="0 0 32 32">
<title>mail</title>
<path fill="#2f5572" style="fill: var(--color2, #2f5572)" d="M0 4v4l16 8 16-8v-4h-32zM0 12v16h32v-16l-16 8z"></path>
</symbol>
<symbol id="icon-rain" viewBox="0 0 32 32">
<title>rain</title>
<path fill="#d4953f" style="fill: var(--color4, #d4953f)" d="M17.98 0c-0.009-0-0.021-0-0.032-0-4.856 0-8.92 3.39-9.955 7.932l-0.013 0.069c-4.418 0-8 3.582-8 8v0c-0 0.011-0 0.025-0 0.038 0 2.066 0.814 3.942 2.138 5.325l-0.003-0.003c1.019-0.847 2.341-1.361 3.783-1.361 0.029 0 0.058 0 0.086 0.001l-0.004-0c0.812 0 1.58 0.185 2.267 0.514l-0.032-0.014c0.686-2.594 3.003-4.479 5.763-4.5h0.002c2.755 0.037 5.061 1.915 5.745 4.458l0.010 0.042c0.66-0.298 1.429-0.48 2.238-0.5l0.007-0c2.483 0.020 4.603 1.552 5.486 3.72l0.014 0.040c2.586-0.696 4.464-3.004 4.5-5.756l0-0.004c0-2.6-1.68-5.16-4-6v-2c0-5.523-4.477-10-10-10v0 0zM13.345 20c-0.801 0.273-1.368 1.019-1.368 1.897 0 0.036 0.001 0.072 0.003 0.108l-0-0.005v8c0 1.105 0.895 2 2 2s2-0.895 2-2v0 0-8c0-0.009 0-0.021 0-0.032 0-1.105-0.895-2-2-2-0.126 0-0.248 0.012-0.368 0.034l0.012-0.002h-0.28zM5.345 24c-0.801 0.273-1.368 1.019-1.368 1.897 0 0.036 0.001 0.072 0.003 0.108l-0-0.005v4c0 1.105 0.895 2 2 2s2-0.895 2-2v0 0-4c0-0.009 0-0.021 0-0.032 0-1.105-0.895-2-2-2-0.126 0-0.248 0.012-0.368 0.034l0.012-0.002h-0.27zM21.345 24c-0.801 0.273-1.368 1.019-1.368 1.897 0 0.036 0.001 0.072 0.003 0.108l-0-0.005v4c0 1.105 0.895 2 2 2s2-0.895 2-2v0-4c0-0.009 0-0.021 0-0.032 0-1.105-0.895-2-2-2-0.126 0-0.248 0.012-0.368 0.034l0.012-0.002h-0.29z"></path>
</symbol>
<symbol id="icon-star" viewBox="0 0 32 32">
<title>star</title>
<path fill="#d4953f" style="fill: var(--color4, #d4953f)" d="M16 0l-4 12h-12l10 8-4 12 10-8 10 8-4-12 10-8h-12z"></path>
</symbol>
<symbol id="icon-twitter" viewBox="0 0 32 32">
<title>twitter</title>
<path fill="#fff" style="fill: var(--color1, #fff)" d="M31.865 6.154c-0.904 1.328-1.989 2.452-3.236 3.37l-0.038 0.027v0.849c-0.004 1.873-0.285 3.679-0.804 5.381l0.034-0.131c-0.571 1.904-1.359 3.564-2.358 5.074l0.044-0.071c-1.066 1.628-2.299 3.029-3.703 4.236l-0.026 0.022c-1.48 1.244-3.212 2.247-5.102 2.918l-0.116 0.036c-1.907 0.702-4.11 1.108-6.407 1.108-0.045 0-0.090-0-0.135-0l0.007 0c-0.034 0-0.073 0-0.113 0-3.687 0-7.117-1.1-9.979-2.99l0.068 0.042c0.449 0.051 0.969 0.080 1.495 0.080 0.028 0 0.056-0 0.084-0l-0.004 0c0.040 0 0.087 0.001 0.133 0.001 3.026 0 5.806-1.051 7.996-2.808l-0.025 0.019c-2.845-0.054-5.242-1.916-6.091-4.483l-0.013-0.046c0.368 0.060 0.794 0.096 1.228 0.098h0.002c0.61-0 1.202-0.081 1.764-0.232l-0.047 0.011c-1.522-0.308-2.818-1.118-3.738-2.247l-0.009-0.012c-0.923-1.090-1.484-2.511-1.484-4.064 0-0.032 0-0.063 0.001-0.095l-0 0.005v-0.080c0.851 0.486 1.863 0.787 2.943 0.824l0.011 0c-0.886-0.595-1.603-1.377-2.106-2.292l-0.017-0.034c-0.496-0.885-0.788-1.942-0.788-3.067 0-0.019 0-0.037 0-0.056l-0 0.003c-0-0.006-0-0.013-0-0.020 0-1.203 0.332-2.328 0.908-3.289l-0.016 0.029c1.624 1.984 3.612 3.603 5.872 4.77l0.103 0.049c2.181 1.143 4.747 1.863 7.468 1.986l0.039 0.001c-0.1-0.449-0.159-0.965-0.16-1.494v-0.001c-0.001-0.044-0.002-0.096-0.002-0.148 0-1.74 0.706-3.316 1.848-4.455l0-0c1.183-1.176 2.814-1.903 4.615-1.903s3.432 0.727 4.616 1.904l-0-0 0.129 0.135c1.586-0.286 3.001-0.825 4.275-1.577l-0.060 0.033c-0.491 1.544-1.512 2.8-2.844 3.584l-0.030 0.016c1.396-0.162 2.669-0.52 3.849-1.048l-0.082 0.033z"></path>
</symbol>
<symbol id="icon-wifi" viewBox="0 0 30 32">
<title>wifi</title>
<path fill="#d4953e" style="fill: var(--color5, #d4953e)" d="M14.94 0c-0.007 0-0.015 0-0.024 0-5.538 0-10.697 1.626-15.025 4.426l0.108-0.066 2.11 3.24c3.575-2.284 7.935-3.641 12.611-3.641 0.077 0 0.154 0 0.231 0.001l-0.012-0c0.101-0.002 0.219-0.002 0.338-0.002 4.677 0 9.037 1.357 12.707 3.699l-0.095-0.057 2.11-3.24c-4.226-2.735-9.392-4.36-14.937-4.36-0.043 0-0.086 0-0.13 0l0.007-0zM14.94 12c-0.014-0-0.031-0-0.047-0-3.142 0-6.067 0.933-8.512 2.536l0.059-0.036 2.11 3.36c1.774-1.166 3.948-1.86 6.284-1.86 0.023 0 0.046 0 0.069 0l-0.004-0c0.008-0 0.017-0 0.027-0 2.402 0 4.64 0.701 6.522 1.909l-0.048-0.029 2.1-3.38c-2.437-1.561-5.409-2.492-8.598-2.5h0.033zM14.94 24c-2.209 0-4 1.791-4 4s1.791 4 4 4c2.209 0 4-1.791 4-4v0c0-2.209-1.791-4-4-4v0z"></path>
</symbol>
<symbol id="icon-youtube" viewBox="0 0 32 32">
<title>youtube</title>
<path fill="#fff" style="fill: var(--color1, #fff)" d="M19.528 22.21v3.81q0 1.196-0.693 1.196c-0.324-0.017-0.609-0.167-0.806-0.395l-0.001-0.001v-5.417c0.196-0.235 0.482-0.39 0.804-0.411l0.003-0q0.693 0 0.693 1.219zM25.562 22.21v0.823h-1.6v-0.808q0-1.211 0.808-1.211t0.762 1.211v0zM8.32 18.286h1.905v-1.63h-5.562v1.676h1.874v10.164h1.783v-10.21zM13.463 28.495h1.592v-8.823h-1.592v6.75c-0.196 0.39-0.557 0.674-0.989 0.76l-0.009 0.002c-0.002 0-0.005 0-0.008 0-0.199 0-0.361-0.159-0.366-0.358v-0s0 0 0 0c-0.006-0.093-0.010-0.202-0.010-0.312s0.004-0.219 0.011-0.327l-0.001 0.015v-6.53h-1.63v6.994c-0.002 0.051-0.003 0.11-0.003 0.17 0 0.403 0.054 0.793 0.155 1.164l-0.007-0.031c0.127 0.392 0.489 0.671 0.915 0.671 0.043 0 0.085-0.003 0.126-0.008l-0.005 0.001c0.756-0.095 1.402-0.5 1.816-1.081l0.005-0.008v0.952zM21.12 25.851v-3.505c0.004-0.089 0.007-0.192 0.007-0.297 0-0.525-0.064-1.034-0.184-1.522l0.009 0.044c-0.117-0.574-0.618-0.999-1.218-0.999-0.019 0-0.038 0-0.057 0.001l0.003-0c-0.698 0.055-1.296 0.436-1.648 0.989l-0.005 0.009v-3.886h-1.585v11.81h1.592v-0.861c0.366 0.556 0.964 0.934 1.652 0.997l0.009 0.001c0.014 0.001 0.029 0.001 0.046 0.001 0.598 0 1.097-0.426 1.21-0.991l0.001-0.008c0.111-0.451 0.174-0.968 0.174-1.501 0-0.102-0.002-0.203-0.007-0.304l0.001 0.014zM27.154 25.669v-0.229h-1.63c0.011 0.163 0.017 0.353 0.017 0.545s-0.006 0.382-0.018 0.571l0.001-0.026c-0.020 0.362-0.319 0.648-0.685 0.648-0.011 0-0.022-0-0.033-0.001l0.002 0q-0.823 0-0.823-1.227v-1.57h3.192v-1.836c0.005-0.072 0.008-0.155 0.008-0.239 0-0.677-0.19-1.31-0.52-1.848l0.009 0.015c-0.451-0.561-1.136-0.916-1.905-0.916s-1.454 0.356-1.901 0.911l-0.004 0.005c-0.322 0.514-0.513 1.139-0.513 1.808 0 0.093 0.004 0.185 0.011 0.276l-0.001-0.012v3.086c-0.008 0.086-0.012 0.186-0.012 0.287 0 0.662 0.192 1.279 0.523 1.799l-0.008-0.014c0.421 0.558 1.084 0.915 1.829 0.915 0.024 0 0.048-0 0.071-0.001l-0.003 0c0.029 0.001 0.062 0.002 0.096 0.002 1.116 0 2.039-0.828 2.188-1.903l0.001-0.012c0.044-0.311 0.069-0.67 0.069-1.036 0-0 0-0 0-0.001v0zM16.297 9.371v-3.749q0-1.227-0.762-1.227t-0.762 1.227v3.749q0 1.25 0.762 1.25t0.762-1.25zM29.135 22.781c0.007 0.25 0.011 0.545 0.011 0.841 0 1.911-0.173 3.781-0.505 5.596l0.029-0.189c-0.164 0.706-0.53 1.31-1.033 1.765l-0.003 0.003c-0.483 0.451-1.111 0.751-1.808 0.822l-0.013 0.001c-2.56 0.244-5.536 0.383-8.544 0.383-0.479 0-0.956-0.004-1.433-0.011l0.072 0.001c-0.405 0.006-0.883 0.010-1.361 0.010-3.008 0-5.983-0.139-8.92-0.411l0.377 0.028c-0.706-0.077-1.331-0.376-1.815-0.825l0.002 0.002c-0.516-0.452-0.887-1.058-1.040-1.746l-0.004-0.022c-0.312-1.633-0.491-3.512-0.491-5.432 0-0.287 0.004-0.573 0.012-0.858l-0.001 0.042c-0.007-0.25-0.011-0.545-0.011-0.841 0-1.911 0.173-3.781 0.505-5.596l-0.029 0.189c0.169-0.711 0.543-1.318 1.056-1.772l0.004-0.003c0.489-0.452 1.121-0.756 1.821-0.837l0.015-0.001q3.269-0.358 9.905-0.358t9.905 0.358c1.417 0.183 2.546 1.227 2.853 2.583l0.004 0.022c0.292 1.579 0.459 3.395 0.459 5.251 0 0.353-0.006 0.705-0.018 1.055l0.001-0.051zM11.314 0h1.821l-2.156 7.124v4.838h-1.783v-4.838c-0.328-1.508-0.703-2.782-1.157-4.019l0.067 0.21q-0.663-1.79-1.166-3.314h1.897l1.272 4.693zM17.905 5.943v3.124c0.007 0.083 0.011 0.18 0.011 0.278 0 0.675-0.191 1.305-0.523 1.84l0.009-0.015c-0.403 0.554-1.050 0.91-1.779 0.91-0.042 0-0.083-0.001-0.124-0.003l0.006 0c-0.026 0.001-0.057 0.002-0.088 0.002-0.731 0-1.379-0.355-1.782-0.902l-0.004-0.006c-0.322-0.525-0.512-1.161-0.512-1.842 0-0.092 0.003-0.183 0.010-0.273l-0.001 0.012v-3.124c-0.006-0.079-0.010-0.171-0.010-0.264 0-0.674 0.191-1.304 0.521-1.838l-0.009 0.015c0.406-0.553 1.055-0.908 1.786-0.908 0.031 0 0.062 0.001 0.093 0.002l-0.004-0c0.035-0.002 0.077-0.003 0.118-0.003 0.729 0 1.376 0.356 1.775 0.904l0.004 0.006c0.322 0.519 0.513 1.149 0.513 1.823 0 0.093-0.004 0.185-0.011 0.276l0.001-0.012zM23.901 3.048v8.914h-1.623v-0.968c-0.416 0.604-1.070 1.017-1.824 1.104l-0.012 0.001c-0.021 0.002-0.045 0.002-0.070 0.002-0.435 0-0.805-0.278-0.942-0.666l-0.002-0.007c-0.094-0.347-0.148-0.745-0.148-1.156 0-0.065 0.001-0.13 0.004-0.194l-0 0.009v-7.040h1.623v6.552c-0.007 0.093-0.010 0.202-0.010 0.312s0.004 0.219 0.011 0.327l-0.001-0.015c-0 0.007-0.001 0.015-0.001 0.023 0 0.201 0.159 0.365 0.358 0.373l0.001 0c0.44-0.089 0.801-0.372 0.994-0.754l0.004-0.008v-6.811h1.646z"></path>
</symbol>
</defs>
</svg>
