<svg xmlns="http://www.w3.org/2000/svg" width="32" height="32"><path fill="#fff" d="M4.331 15.398v1.07H1.273v1.242h2.806v.989H1.273v1.42h3.121v1.07H0v-5.792h4.331zm1.772 4.748c.05.09.116.166.196.224l.002.001c.08.056.173.099.274.125l.006.001c.097.026.209.041.324.041h.005c.091-.001.178-.012.263-.031l-.008.002a.883.883 0 0 0 .248-.092l-.004.002a.568.568 0 0 0 .19-.167l.001-.002a.426.426 0 0 0 .072-.238v-.018.001a.43.43 0 0 0-.342-.389h-.003a6.5 6.5 0 0 0-.925-.261l-.044-.008q-.252-.056-.491-.133a1.645 1.645 0 0 1-.432-.207l.006.004a.979.979 0 0 1-.297-.311l-.002-.004a.893.893 0 0 1-.113-.437v-.031.001a1.252 1.252 0 0 1 .161-.682l-.003.006c.103-.171.244-.309.411-.407l.005-.003c.168-.098.364-.172.572-.21l.011-.002c.198-.039.425-.061.658-.061h.019-.001.003c.232 0 .459.024.678.069l-.022-.004c.216.044.408.123.58.23l-.007-.004c.166.11.302.252.402.418l.003.006c.113.181.186.399.2.631v.004H7.597v-.013a.506.506 0 0 0-.25-.436l-.002-.001a1.136 1.136 0 0 0-.506-.118H6.81a2 2 0 0 0-.22.012l.009-.001a.696.696 0 0 0-.212.054l.005-.002a.429.429 0 0 0-.157.117v.001a.309.309 0 0 0-.066.191v.017-.001.011c0 .097.044.184.112.241a.878.878 0 0 0 .289.156l.006.002c.11.038.25.076.393.106l.024.004.491.11c.2.045.365.092.525.148l-.034-.01c.163.058.304.134.43.228l-.004-.003c.123.089.223.2.297.328l.003.005a.97.97 0 0 1 .113.457l-.001.036v-.002l.001.061c0 .454-.238.853-.596 1.078l-.005.003a1.72 1.72 0 0 1-.607.23l-.011.002a3.49 3.49 0 0 1-.701.07h-.011c-.249 0-.492-.026-.726-.076l.023.004a1.88 1.88 0 0 1-.621-.25l.008.005a1.397 1.397 0 0 1-.447-.445l-.003-.006a1.396 1.396 0 0 1-.192-.7h1.093v.013c0 .114.03.221.083.313l-.002-.003zm5.388-2.386h-.027a.801.801 0 0 0-.438.129l.003-.002a1.002 1.002 0 0 0-.302.32l-.003.005a1.387 1.387 0 0 0-.165.428l-.002.009a2.302 2.302 0 0 0 .003.93l-.003-.015c.032.16.087.303.161.433l-.004-.007a.908.908 0 0 0 .292.311l.003.002c.122.077.27.122.428.122h.023-.001l.061.002a.843.843 0 0 0 .577-.228c.151-.165.253-.379.279-.615v-.005h1.111a1.895 1.895 0 0 1-.647 1.271l-.002.002c-.35.274-.797.439-1.283.439l-.092-.002h.004-.028a2.29 2.29 0 0 1-.851-.163l.015.005a1.94 1.94 0 0 1-.676-.45h-.001a2.023 2.023 0 0 1-.426-.662l-.005-.014a2.31 2.31 0 0 1-.153-.835v-.05c0-.315.052-.617.148-.899l-.006.02c.099-.274.244-.509.429-.707l-.001.001c.185-.201.41-.361.664-.469l.013-.005a2.26 2.26 0 0 1 .869-.172h.034-.002.013c.251 0 .495.035.725.101l-.018-.005c.235.066.44.167.621.299l-.005-.004c.376.272.622.704.638 1.194v.002h-1.127a.773.773 0 0 0-.853-.719h.003zm2.603.525c.006-.251.081-.484.206-.682l-.003.005c.117-.176.268-.321.444-.427l.006-.003c.179-.103.387-.181.607-.223l.012-.002c.209-.044.448-.069.694-.07a4.7 4.7 0 0 1 .665.048l-.025-.003c.22.029.42.09.604.179l-.012-.005c.18.084.33.205.444.355l.002.003a.998.998 0 0 1 .172.564l-.001.052v-.002 2.198c0 .185.011.368.034.547l-.002-.021a.98.98 0 0 0 .115.395l-.003-.005h-1.17a1.378 1.378 0 0 1-.046-.189l-.001-.009a1.538 1.538 0 0 1-.029-.201v-.006a1.497 1.497 0 0 1-.636.394l-.011.003a2.532 2.532 0 0 1-.758.113h-.024c-.192 0-.378-.026-.554-.076l.014.003a1.292 1.292 0 0 1-.454-.227l.003.002a1.074 1.074 0 0 1-.302-.383l-.003-.007a1.296 1.296 0 0 1-.111-.529v-.032.002L13.97 20c0-.198.047-.384.13-.549l-.003.007c.08-.149.189-.273.321-.367l.003-.002c.129-.09.279-.161.441-.205l.01-.002c.136-.039.31-.078.488-.107l.028-.004q.259-.041.512-.065a3.21 3.21 0 0 0 .472-.076l-.021.004a.786.786 0 0 0 .311-.143l-.002.001a.31.31 0 0 0 .09-.281v.002l.001-.028a.617.617 0 0 0-.063-.271l.002.004a.453.453 0 0 0-.16-.154l-.002-.001a.648.648 0 0 0-.222-.081h-.004a1.871 1.871 0 0 0-.28-.02h-.009l-.048-.001a.865.865 0 0 0-.489.15l.003-.002a.648.648 0 0 0-.225.486h-1.165zm2.659.852a.508.508 0 0 1-.179.1l-.004.001c-.06.021-.136.043-.213.059l-.012.002c-.092.016-.183.038-.27.038s-.185.025-.275.041a1.944 1.944 0 0 0-.269.07l.015-.004a.77.77 0 0 0-.228.112l.002-.002a.534.534 0 0 0-.15.171l-.001.003a.55.55 0 0 0-.057.246v.023-.001.018c0 .088.021.171.058.244l-.001-.003a.434.434 0 0 0 .152.166l.002.001c.065.04.14.07.221.085l.004.001c.081.016.173.025.268.025l.059.002c.171 0 .332-.042.474-.117l-.006.003a.773.773 0 0 0 .273-.269l.002-.003a.844.844 0 0 0 .11-.315l.001-.005c.013-.076.023-.167.027-.259v-.431zm3.141-2.143v.541h.016a1.28 1.28 0 0 1 .527-.497l.007-.003c.203-.097.442-.153.693-.153h.022-.001l.047-.001c.293 0 .57.069.815.192l-.01-.005c.237.123.434.29.59.492l.003.004c.155.204.275.444.346.704l.003.015c.072.252.113.542.113.841v.016-.001.012c0 .285-.041.56-.118.82l.005-.02a2.073 2.073 0 0 1-.348.695l.004-.005a1.726 1.726 0 0 1-.576.471l-.01.004a1.701 1.701 0 0 1-.766.178l-.043-.001h.002-.017c-.254 0-.495-.058-.709-.162l.01.004a1.376 1.376 0 0 1-.536-.462l-.003-.005h-.009v1.988h-1.152v-5.663h1.095zm1.496 3.326a.927.927 0 0 0 .304-.303l.002-.004c.078-.122.136-.265.166-.418l.001-.008c.031-.149.049-.32.05-.496v-.007c0-.173-.019-.342-.055-.504l.003.015a1.33 1.33 0 0 0-.177-.438l.003.005a.98.98 0 0 0-.309-.306l-.004-.002a.863.863 0 0 0-.471-.094h.003l-.034-.001a.885.885 0 0 0-.446.12l.004-.002a.964.964 0 0 0-.306.3l-.002.004a1.22 1.22 0 0 0-.165.422l-.001.008a2.461 2.461 0 0 0-.045.477v.024-.001.008c0 .173.019.341.055.503l-.003-.015c.036.154.095.289.174.411l-.003-.005a.983.983 0 0 0 1.263.304l-.005.003zm3.595-.137c.199.158.454.253.731.253.23 0 .445-.066.626-.18l-.005.003a.727.727 0 0 0 .307-.365l.002-.005h1.01a1.94 1.94 0 0 1-.74 1.076l-.006.004a2.177 2.177 0 0 1-1.151.326l-.069-.001h.003-.047c-.307 0-.601-.058-.871-.164l.016.006a1.866 1.866 0 0 1-.675-.45l-.001-.001a2.013 2.013 0 0 1-.421-.682l-.005-.014a2.502 2.502 0 0 1-.151-.866v-.06c0-.306.056-.599.159-.869l-.006.017a2.04 2.04 0 0 1 1.102-1.162l.013-.005c.249-.108.54-.171.845-.171h.028-.001l.047-.001c.323 0 .628.077.897.213l-.011-.005c.263.136.482.323.65.549l.004.005c.174.227.308.495.386.786l.004.016a2.909 2.909 0 0 1 .081.943l.001-.01h-3.033l-.001.053c0 .291.107.558.284.762l-.001-.001zm1.302-2.198a.806.806 0 0 0-.632-.225h.003-.029a.997.997 0 0 0-.427.095l.006-.003a.893.893 0 0 0-.292.224l-.001.001a.842.842 0 0 0-.152.287l-.002.006a1.28 1.28 0 0 0-.052.27v.005h1.873a1.326 1.326 0 0 0-.297-.662l.002.002zm3.09 2.161c.05.09.116.166.196.224l.002.001c.08.056.173.099.274.125l.006.001c.097.026.209.041.324.041h.005c.091-.001.178-.012.263-.031l-.008.002a.883.883 0 0 0 .248-.092l-.004.002a.562.562 0 0 0 .181-.161l.001-.002a.426.426 0 0 0 .072-.238V20v.001a.431.431 0 0 0-.349-.396h-.003a6.384 6.384 0 0 0-.906-.26l-.045-.008q-.25-.056-.491-.133a1.645 1.645 0 0 1-.432-.207l.006.004a.99.99 0 0 1-.297-.311l-.002-.004a.893.893 0 0 1-.113-.437v-.031.001a1.252 1.252 0 0 1 .161-.682l-.003.006c.104-.171.244-.309.411-.407l.006-.003c.168-.098.364-.172.572-.21l.011-.002c.198-.039.425-.061.658-.061h.019-.001.003c.232 0 .459.024.678.069l-.022-.004c.216.044.408.123.58.23l-.007-.004c.169.106.309.243.414.405l.003.005c.114.184.186.405.198.641v.003h-1.095v-.013a.506.506 0 0 0-.25-.436l-.002-.001a1.136 1.136 0 0 0-.506-.118h-.029a2 2 0 0 0-.22.012l.009-.001a.696.696 0 0 0-.212.054l.005-.002a.418.418 0 0 0-.157.117l-.001.001a.309.309 0 0 0-.066.191v.017-.001.011c0 .097.044.184.112.241a.878.878 0 0 0 .289.156l.006.002c.11.038.25.076.393.106l.024.004.473.115c.2.045.365.092.525.148l-.034-.01c.163.058.304.134.43.228l-.004-.003c.123.089.223.2.297.328l.003.005a.965.965 0 0 1 .113.456l-.001.037v-.002a1.273 1.273 0 0 1-.599 1.133l-.005.003a1.752 1.752 0 0 1-.602.237l-.011.002a3.49 3.49 0 0 1-.701.07h-.012c-.249 0-.491-.026-.725-.076l.023.004a1.872 1.872 0 0 1-.628-.248l.008.005a1.407 1.407 0 0 1-.447-.445l-.003-.006a1.396 1.396 0 0 1-.192-.7h1.095v.003c0 .117.032.226.087.32l-.002-.003zM5.264 10.614a1.408 1.408 0 0 0-.128-.33l.004.008a.907.907 0 0 0-.202-.251l-.001-.001a.905.905 0 0 0-.284-.165l-.006-.002a1.132 1.132 0 0 0-.363-.059h-.023.001-.027c-.193 0-.375.049-.533.134l.006-.003a1.113 1.113 0 0 0-.388.341l-.002.004a1.548 1.548 0 0 0-.223.483l-.002.011a2.303 2.303 0 0 0 .004 1.142l-.004-.016c.05.188.127.352.229.499l-.003-.005c.098.144.226.261.375.344l.006.003c.152.081.332.129.523.129h.033-.002l.032.001a.988.988 0 0 0 .392-.08l-.007.002a.918.918 0 0 0 .31-.225l.001-.001c.085-.095.154-.206.2-.329l.002-.007c.047-.12.082-.26.096-.406l.001-.007h.687a1.904 1.904 0 0 1-.16.672l.005-.012a1.579 1.579 0 0 1-.877.848l-.011.004c-.193.076-.417.12-.652.12h-.026.001-.03c-.282 0-.55-.062-.791-.172l.012.005a1.782 1.782 0 0 1-.604-.449l-.002-.002a2.036 2.036 0 0 1-.377-.662l-.004-.014a2.437 2.437 0 0 1-.133-.801v-.027c0-.287.049-.562.138-.818l-.005.017c.088-.26.218-.485.383-.679l-.002.003c.166-.188.368-.34.595-.446l.011-.005c.229-.108.499-.172.782-.172h.042-.002.012c.222 0 .435.034.636.097l-.015-.004c.202.062.377.154.531.273l-.004-.003c.152.117.277.261.37.426l.004.007c.093.168.156.366.175.575v.006h-.708zm1.278-1.278h.642v4.023h-.642V9.336zm1.843 2.732v.004c0 .115.017.226.049.331l-.002-.008a.823.823 0 0 0 .145.279l-.001-.002c.065.08.147.144.239.188l.004.002c.096.044.209.07.327.07h.023-.001l.031.001a.766.766 0 0 0 .43-.131l-.003.002c.12-.09.21-.214.256-.358l.001-.005h.608c-.064.304-.234.56-.47.732l-.003.002a1.257 1.257 0 0 1-.383.189l-.009.002a1.555 1.555 0 0 1-.449.065h-.03c-.209 0-.408-.041-.59-.117l.01.004a1.261 1.261 0 0 1-.45-.315l-.001-.001a1.34 1.34 0 0 1-.29-.468l-.003-.009a1.928 1.928 0 0 1-.081-.628v-.004c0-.208.036-.408.103-.594l-.004.012c.066-.189.162-.353.283-.493l-.002.002c.243-.277.598-.451.994-.451h.035-.002.02c.218 0 .424.053.604.148l-.007-.003c.18.095.33.223.448.378l.002.003c.117.153.208.332.261.528l.002.011a1.643 1.643 0 0 1 .044.641l.001-.008H8.383zm1.499-.424a1.01 1.01 0 0 0-.068-.3l.002.007a.785.785 0 0 0-.147-.246l.001.001a.725.725 0 0 0-.221-.167l-.004-.002a.671.671 0 0 0-.29-.065H9.14a.77.77 0 0 0-.3.061l.005-.002a.7.7 0 0 0-.236.164.82.82 0 0 0-.156.24l-.002.005a.844.844 0 0 0-.065.303v.001h1.499zm3.574 1.066l-.001.024c0 .053.012.102.033.147l-.001-.002a.131.131 0 0 0 .105.053l.017-.001h-.001.072c.014.002.029.002.045.002s.032-.001.047-.003h-.002v.451l-.09.009-.11.025-.113.018h-.12a.61.61 0 0 1-.306-.081l.003.002a.39.39 0 0 1-.169-.275v-.002a1.127 1.127 0 0 1-.463.268l-.008.002a1.832 1.832 0 0 1-.538.086h-.006a1.31 1.31 0 0 1-.383-.057l.009.002a1.001 1.001 0 0 1-.32-.16l.003.002a.76.76 0 0 1-.223-.262l-.002-.004a.805.805 0 0 1-.079-.351l.001-.029v.001l-.001-.046c0-.148.037-.287.103-.409l-.002.005c.063-.11.151-.2.256-.264l.003-.002c.104-.062.225-.11.353-.136l.008-.001q.201-.043.403-.065c.091-.019.205-.036.32-.046l.013-.001c.103-.008.198-.025.29-.05l-.011.003a.432.432 0 0 0 .19-.084l-.001.001a.284.284 0 0 0 .071-.188l-.001-.024v-.014a.327.327 0 0 0-.06-.189l.001.001a.4.4 0 0 0-.144-.121l-.002-.001a.634.634 0 0 0-.191-.056h-.003a1.782 1.782 0 0 0-.203-.014l-.038-.001a.796.796 0 0 0-.416.116l.004-.002a.452.452 0 0 0-.196.348v.001h-.638a.958.958 0 0 1 .138-.473l-.002.004a.929.929 0 0 1 .298-.297l.004-.002c.119-.073.258-.128.407-.157l.008-.001a2.37 2.37 0 0 1 .469-.045h.006c.149 0 .295.016.435.048l-.013-.002c.14.028.265.076.377.143l-.006-.003a.82.82 0 0 1 .266.258l.002.003a.715.715 0 0 1 .104.373l-.001.03v-.001 1.499zm-.644-.809a.77.77 0 0 1-.358.115h-.002q-.225.02-.428.059a1.413 1.413 0 0 0-.206.05l.01-.003a.586.586 0 0 0-.171.087l.002-.001a.378.378 0 0 0-.114.14l-.001.002a.476.476 0 0 0-.043.199v.013-.001.01a.27.27 0 0 0 .061.171c.041.048.09.086.146.114l.003.001c.056.027.12.047.188.058l.004.001a1.1 1.1 0 0 0 .421-.012l-.007.001a.786.786 0 0 0 .242-.103l-.003.002a.61.61 0 0 0 .181-.169l.001-.002a.43.43 0 0 0 .075-.244v-.014.001-.473zm1.334-1.456h.604v.554h.011a.635.635 0 0 1 .112-.227l-.001.002a1.08 1.08 0 0 1 .196-.203l.002-.002a.988.988 0 0 1 .25-.146l.007-.002a.743.743 0 0 1 .288-.056 1.795 1.795 0 0 1 .159 0h-.004.088v.636l-.149-.016-.069-.002-.072.002h.003-.003a.734.734 0 0 0-.308.067l.005-.002a.707.707 0 0 0-.245.175l-.001.001a.924.924 0 0 0-.167.307l-.002.007c-.039.12-.061.258-.061.402v.028-.001 1.386h-.645v-2.907zm3.184-1.109h.732l1.01 3.184h.018l1.023-3.184h.714l-1.375 4.023h-.782zm3.883 0h.642v.608h-.642v-.608zm0 1.111h.642v2.912h-.642v-2.914zm1.841 1.621v.004c0 .115.017.226.049.331l-.002-.008a.823.823 0 0 0 .145.279l-.001-.002c.065.08.147.144.239.188l.004.002c.096.044.209.07.327.07h.023-.001l.034.001a.773.773 0 0 0 .42-.124l-.003.002c.12-.09.21-.214.256-.358l.001-.005h.608c-.064.304-.234.56-.47.732l-.003.002a1.257 1.257 0 0 1-.383.189l-.009.002a1.555 1.555 0 0 1-.449.065h-.03c-.209 0-.408-.041-.59-.117l.01.004a1.261 1.261 0 0 1-.45-.315l-.001-.001a1.313 1.313 0 0 1-.272-.475l-.003-.009a1.914 1.914 0 0 1-.093-.596v-.035c0-.208.036-.408.103-.593l-.004.012c.066-.189.162-.353.283-.493l-.002.002c.243-.277.598-.451.994-.451h.035-.002.021c.218 0 .423.053.604.148l-.007-.003c.18.095.33.223.448.378l.002.003c.117.154.207.335.259.532l.002.011a1.64 1.64 0 0 1 .042.641l.001-.008H23.05zm1.498-.424a1.01 1.01 0 0 0-.068-.3l.002.007a.785.785 0 0 0-.147-.246l.001.001a.725.725 0 0 0-.221-.167l-.004-.002a.666.666 0 0 0-.285-.063h-.019a.766.766 0 0 0-.3.061l.005-.002a.718.718 0 0 0-.225.164v.001a.82.82 0 0 0-.156.24l-.002.005a.844.844 0 0 0-.065.303v.001h1.499zm.87-1.199h.676l.57 2.175.545-2.175h.665l.525 2.175.602-2.175h.654l-.901 2.914h-.66l-.541-2.163-.534 2.163h-.676z"/></svg>