<svg xmlns="http://www.w3.org/2000/svg" width="32" height="32"><path fill="#d4953f" d="M16 0C7.163 0 0 7.163 0 16s7.163 16 16 16 16-7.163 16-16S24.837 0 16 0zm0 4c1.364.052 2.649.327 3.841.788l-.081-.028c-.84.8-1.8 1.5-1.64 2.24s2.76.5 2.76 2c0 1.08-1.68 1.4-.5 2.64 1.4 1.4-2.56 3.92-2.64 5.76-.12 3.32 3.36 3.88 6.12 3.88 1.68 0 2.12.8 2 1.76-2.212 3.044-5.76 5.001-9.765 5.001l-.121-.001h.006a11.446 11.446 0 0 1-4.315-.908l.075.028c.88-1.76-1.12-5.24-3-6.36-.92-.92-2.88-.56-4-1a11.414 11.414 0 0 1-.757-3.32l-.003-.04a.71.71 0 0 1 .618-.36h.023-.001c.76 0 1.8 1.5 2.36 1.36.7-.16-2.98-5.24-1.26-6.24.8-.5 2.4 1.56 1.88-.64-.5-2.04 1.44-1.12 2.64-1.64 1.04-.44 1.8-1.64.5-2.36a4.36 4.36 0 0 1-.876-.755L9.86 5.8a11.75 11.75 0 0 1 6.136-1.76H16V4zm9.24 4.36a13.137 13.137 0 0 1 1.726 2.797l.034.083v.12a5.963 5.963 0 0 1-.869.871l-.011.009C25 13.36 24.84 11.4 24.36 11c-.5-.5-2.4.08-2.64-.5-.28-.74 2-1.7 3.52-2.14z"/></svg>