<svg xmlns="http://www.w3.org/2000/svg" width="32" height="32"><path fill="#fff" d="M28.374 27.034V13.536h-2.811c.272.814.431 1.751.434 2.725v.067a9.19 9.19 0 0 1-1.356 4.819l.023-.04a9.798 9.798 0 0 1-3.577 3.471l-.049.025a9.882 9.882 0 0 1-4.922 1.295h-.078.004l-.141.001c-2.676 0-5.1-1.08-6.86-2.828l.001.001a9.119 9.119 0 0 1-2.919-6.696c0-.056 0-.112.002-.168v.008l-.001-.148c0-.914.137-1.797.391-2.628l-.017.064H3.565v13.559a1.24 1.24 0 0 0 1.218 1.241h22.339c.34 0 .648-.137.873-.358.235-.221.381-.535.381-.882v-.034.002zm-5.918-11.099v-.074a5.884 5.884 0 0 0-1.886-4.325l-.004-.003a6.286 6.286 0 0 0-4.442-1.829l-.135.001h.007-.078a6.265 6.265 0 0 0-4.424 1.821 5.891 5.891 0 0 0-1.881 4.407v-.004l-.001.088c0 1.705.723 3.241 1.879 4.319l.004.003a6.264 6.264 0 0 0 4.431 1.829H16h-.004l.128.001a6.287 6.287 0 0 0 4.442-1.83 5.888 5.888 0 0 0 1.89-4.329v-.078.004zm5.911-7.495V4.991c0-.387-.157-.738-.411-.992a1.368 1.368 0 0 0-.994-.427h-3.649c-.391 0-.744.164-.993.426l-.001.001a1.397 1.397 0 0 0-.411.992v3.487c0 .779.625 1.412 1.401 1.424h3.657a1.425 1.425 0 0 0 1.409-1.424v-.016.001zm3.625-4.334v23.789a4.121 4.121 0 0 1-4.097 4.098H4.058a3.942 3.942 0 0 1-2.847-1.21l-.001-.001a3.943 3.943 0 0 1-1.211-2.848v-.041.002V4.059c0-1.118.464-2.128 1.21-2.847l.001-.001A3.943 3.943 0 0 1 4.058 0h.049-.002 23.836c1.118 0 2.128.464 2.847 1.21l.001.001a3.942 3.942 0 0 1 1.204 2.841v.057-.003z"/></svg>