<svg xmlns="http://www.w3.org/2000/svg" width="32" height="32"><path fill="#d4953f" d="M17.98 0h-.032c-4.856 0-8.92 3.39-9.955 7.932l-.013.069a8 8 0 0 0-8 8v.038c0 2.066.814 3.942 2.138 5.325l-.003-.003a5.905 5.905 0 0 1 3.869-1.36H5.98c.812 0 1.58.185 2.267.514l-.032-.014c.686-2.594 3.003-4.479 5.763-4.5h.002a6.033 6.033 0 0 1 5.745 4.458l.01.042a5.822 5.822 0 0 1 2.238-.5h.007a5.974 5.974 0 0 1 5.486 3.72l.014.04c2.586-.696 4.464-3.004 4.5-5.756v-.004c0-2.6-1.68-5.16-4-6v-2c0-5.523-4.477-10-10-10zm-4.635 20a2.005 2.005 0 0 0-1.365 2.005V22v8a2 2 0 1 0 4 0v-8.032a2 2 0 0 0-2.368-1.966l.012-.002h-.28zm-8 4a2.005 2.005 0 0 0-1.365 2.005V26v4a2 2 0 1 0 4 0v-4.032a2 2 0 0 0-2.368-1.966L5.624 24h-.27zm16 0a2.005 2.005 0 0 0-1.365 2.005V26v4a2 2 0 1 0 4 0v-4.032a2 2 0 0 0-2.368-1.966l.012-.002h-.29z"/></svg>