<svg xmlns="http://www.w3.org/2000/svg" width="32" height="32"><path fill="#fff" d="M31.865 6.154a13.791 13.791 0 0 1-3.236 3.37l-.038.027v.849a18.554 18.554 0 0 1-.804 5.381l.034-.131a18.923 18.923 0 0 1-2.358 5.074l.044-.071a19.948 19.948 0 0 1-3.703 4.236l-.026.022a16.558 16.558 0 0 1-5.102 2.918l-.116.036c-1.907.702-4.11 1.108-6.407 1.108h-.135.007-.113c-3.687 0-7.117-1.1-9.979-2.99l.068.042c.449.051.969.08 1.495.08h.084-.004l.133.001c3.026 0 5.806-1.051 7.996-2.808l-.025.019a6.546 6.546 0 0 1-6.091-4.483l-.013-.046c.368.06.794.096 1.228.098h.002c.61 0 1.202-.081 1.764-.232l-.047.011a6.443 6.443 0 0 1-3.738-2.247l-.009-.012a6.272 6.272 0 0 1-1.484-4.064l.001-.095v.005-.08a6.39 6.39 0 0 0 2.943.824h.011a6.571 6.571 0 0 1-2.106-2.292l-.017-.034a6.286 6.286 0 0 1-.788-3.067V7.53c0-1.203.332-2.328.908-3.289l-.016.029A18.624 18.624 0 0 0 8.1 9.04l.103.049c2.181 1.143 4.747 1.863 7.468 1.986l.039.001a7.048 7.048 0 0 1-.16-1.494v-.001a6.273 6.273 0 0 1 1.846-4.603c1.183-1.176 2.814-1.903 4.615-1.903s3.432.727 4.616 1.904l.129.135a12.79 12.79 0 0 0 4.275-1.577l-.06.033a6.38 6.38 0 0 1-2.844 3.584l-.03.016a13.012 13.012 0 0 0 3.849-1.048l-.082.033z"/></svg>