<svg xmlns="http://www.w3.org/2000/svg" width="30" height="32"><path fill="#d4953e" d="M14.94 0h-.024A27.57 27.57 0 0 0-.109 4.426l.108-.066 2.11 3.24c3.575-2.284 7.935-3.641 12.611-3.641l.231.001h-.012c.101-.002.219-.002.338-.002 4.677 0 9.037 1.357 12.707 3.699l-.095-.057 2.11-3.24C25.773 1.625 20.607 0 15.062 0h-.13.007zm0 12h-.047c-3.142 0-6.067.933-8.512 2.536l.059-.036 2.11 3.36A11.44 11.44 0 0 1 14.834 16h.069-.004.027c2.402 0 4.64.701 6.522 1.909l-.048-.029 2.1-3.38c-2.437-1.561-5.409-2.492-8.598-2.5h.033zm0 12a4 4 0 1 0 4 4 4 4 0 0 0-4-4z"/></svg>