<svg xmlns="http://www.w3.org/2000/svg" width="32" height="32"><path fill="#fff" d="M19.528 22.21v3.81q0 1.196-.693 1.196a1.14 1.14 0 0 1-.806-.395l-.001-.001v-5.417c.196-.235.482-.39.804-.411h.003q.693 0 .693 1.219zm6.034 0v.823h-1.6v-.808q0-1.211.808-1.211t.762 1.211zM8.32 18.286h1.905v-1.63H4.663v1.676h1.874v10.164H8.32v-10.21zm5.143 10.209h1.592v-8.823h-1.592v6.75a1.42 1.42 0 0 1-.989.76l-.009.002h-.008a.366.366 0 0 1-.366-.358 4.959 4.959 0 0 1 .001-.639l-.001.015v-6.53h-1.63v6.994A4.458 4.458 0 0 0 10.613 28l-.007-.031a.963.963 0 0 0 1.041.663l-.005.001a2.623 2.623 0 0 0 1.816-1.081l.005-.008v.952zm7.657-2.644v-3.505a6.362 6.362 0 0 0-.177-1.819l.009.044a1.243 1.243 0 0 0-1.218-.999l-.057.001h.003a2.148 2.148 0 0 0-1.648.989l-.005.009v-3.886h-1.585v11.81h1.592v-.861a2.22 2.22 0 0 0 1.652.997l.009.001a1.235 1.235 0 0 0 1.256-.99l.001-.008a6.373 6.373 0 0 0 .167-1.805l.001.014zm6.034-.182v-.229h-1.63a9.001 9.001 0 0 1-.001 1.116l.001-.026a.686.686 0 0 1-.685.648l-.033-.001h.002q-.823 0-.823-1.227v-1.57h3.192v-1.836a3.523 3.523 0 0 0-.512-2.087l.009.015c-.451-.561-1.136-.916-1.905-.916s-1.454.356-1.901.911l-.004.005a3.408 3.408 0 0 0-.502 2.084l-.001-.012v3.086a3.339 3.339 0 0 0 .511 2.086l-.008-.014a2.285 2.285 0 0 0 1.829.915l.071-.001h-.003l.096.002a2.21 2.21 0 0 0 2.188-1.903l.001-.012c.044-.311.069-.67.069-1.036v-.001zM16.297 9.371V5.622q0-1.227-.762-1.227t-.762 1.227v3.749q0 1.25.762 1.25t.762-1.25zm12.838 13.41a31.078 31.078 0 0 1-.494 6.437l.029-.189a3.402 3.402 0 0 1-1.033 1.765l-.003.003a3.107 3.107 0 0 1-1.808.822l-.013.001a92.335 92.335 0 0 1-9.977.372l.072.001a96.705 96.705 0 0 1-10.281-.401l.377.028a3.157 3.157 0 0 1-1.815-.825l.002.002a3.263 3.263 0 0 1-1.04-1.746l-.004-.022a29.488 29.488 0 0 1-.491-5.432c0-.287.004-.573.012-.858l-.001.042a31.078 31.078 0 0 1 .494-6.437l-.029.189a3.4 3.4 0 0 1 1.056-1.772l.004-.003a3.228 3.228 0 0 1 1.821-.837l.015-.001q3.269-.358 9.905-.358t9.905.358a3.36 3.36 0 0 1 2.853 2.583l.004.022c.292 1.579.459 3.395.459 5.251 0 .353-.006.705-.018 1.055l.001-.051zM11.314 0h1.821l-2.156 7.124v4.838H9.196V7.124a29.727 29.727 0 0 0-1.157-4.019l.067.21Q7.443 1.525 6.94.001h1.897l1.272 4.693zm6.591 5.943v3.124a3.477 3.477 0 0 1-.512 2.118l.009-.015a2.194 2.194 0 0 1-1.903.907h.006a2.209 2.209 0 0 1-1.87-.9l-.004-.006a3.525 3.525 0 0 1-.502-2.115l-.001.012V5.944a3.486 3.486 0 0 1 .511-2.102l-.009.015a2.21 2.21 0 0 1 1.879-.906h-.004a2.192 2.192 0 0 1 1.893.901l.004.006a3.46 3.46 0 0 1 .502 2.099l.001-.012zm5.996-2.895v8.914h-1.623v-.968a2.57 2.57 0 0 1-1.824 1.104l-.012.001c-.021.002-.045.002-.07.002a1 1 0 0 1-.942-.666l-.002-.007a4.48 4.48 0 0 1-.144-1.35v.009-7.04h1.623v6.552a5.053 5.053 0 0 0 .001.639l-.001-.015-.001.023c0 .201.159.365.358.373h.001c.44-.089.801-.372.994-.754l.004-.008V3.046h1.646z"/></svg>